<?xml version="1.0" standalone="no"?>
<!DOCTYPE svg PUBLIC "-//W3C//DTD SVG 1.1//EN" "http://www.w3.org/Graphics/SVG/1.1/DTD/svg11.dtd" >
<svg xmlns="http://www.w3.org/2000/svg" xmlns:xlink="http://www.w3.org/1999/xlink" version="1.1">
<metadata></metadata>
<defs>
<font id="metamorphousregular" horiz-adv-x="1360" >
<font-face units-per-em="2048" ascent="1638" descent="-410" />
<missing-glyph horiz-adv-x="681" />
<glyph horiz-adv-x="0" />
<glyph unicode="&#xd;" horiz-adv-x="0" />
<glyph horiz-adv-x="0" />
<glyph horiz-adv-x="0" />
<glyph horiz-adv-x="0" />
<glyph horiz-adv-x="0" />
<glyph horiz-adv-x="0" />
<glyph horiz-adv-x="0" />
<glyph horiz-adv-x="0" />
<glyph horiz-adv-x="0" />
<glyph unicode="&#x9;" horiz-adv-x="0" />
<glyph horiz-adv-x="0" />
<glyph horiz-adv-x="0" />
<glyph horiz-adv-x="0" />
<glyph horiz-adv-x="0" />
<glyph horiz-adv-x="0" />
<glyph horiz-adv-x="0" />
<glyph horiz-adv-x="0" />
<glyph horiz-adv-x="0" />
<glyph horiz-adv-x="0" />
<glyph horiz-adv-x="0" />
<glyph unicode=" "  horiz-adv-x="681" />
<glyph unicode="&#x09;" horiz-adv-x="681" />
<glyph unicode="&#xa0;" horiz-adv-x="681" />
<glyph unicode="!" horiz-adv-x="512" d="M83 1527l183 179l178 -179q-80 -214 -112 -687q-15 -209 -17 -431h-96q-8 611 -92 972q-19 82 -44 146zM89 123l182 179l178 -179l-178 -181z" />
<glyph unicode="&#x22;" horiz-adv-x="1025" d="M95 1527l183 179l179 -179q-118 -182 -129 -632h-97q-11 447 -136 632zM580 1527l183 179l179 -179q-118 -182 -129 -632h-97q-11 447 -136 632z" />
<glyph unicode="#" horiz-adv-x="1539" d="M158 393l40 167h220l32 380h-268l39 167h243l33 370l168 -14l-31 -356h341l33 370l168 -14l-31 -356h236l-41 -167h-209l-33 -380h249l-41 -167h-222l-34 -406l-169 14l34 392h-342l-34 -406l-168 14l33 392h-246zM587 560h342l32 380h-341z" />
<glyph unicode="$" horiz-adv-x="1526" d="M189 303q0 68 26 111.5t63 74.5q71 58 152 74l54 -64l-24 -28q-34 -43 -34 -108t17.5 -110t52.5 -81q77 -77 215 -89v632q-235 117 -342 216q-121 113 -121 242q0 156 141 261q128 95 322 114v222h105v-219q181 -6 310 -79q136 -77 136 -185q0 -90 -107 -157 q-37 -23 -88 -38l-74 49l21 25q35 42 35 111.5t-63.5 112.5t-169.5 51v-575l46 -24q235 -116 316 -184t119.5 -131.5t38.5 -150.5t-41.5 -160.5t-112.5 -123.5q-141 -98 -366 -113v-211h-105v210q-217 6 -363 92q-72 43 -115.5 104t-43.5 129zM471 1222q0 -49 15 -89t45 -75 q55 -64 180 -135v518q-169 -20 -222 -132q-18 -38 -18 -87zM816 83q136 11 213 75t77 183q0 147 -180 256q-52 32 -110 63v-577z" />
<glyph unicode="%" horiz-adv-x="2221" d="M207 1085q0 167 101 285q112 129 302 129q189 0 302 -129q102 -118 102 -285q0 -168 -102 -284q-113 -128 -302 -128q-101 0 -176.5 36t-125.5 95q-101 116 -101 281zM404 1085q0 -133 32 -194.5t72.5 -90.5t104 -29t103.5 28.5t64 73.5q41 79 41 212q0 216 -105 291 q-40 28 -103 28q-209 0 -209 -319zM622 -70l827 1613h152l-825 -1613h-154zM1207 358q0 76 25.5 150.5t76.5 133.5q113 129 302 129t302 -129q102 -118 102 -285q0 -168 -102 -284q-113 -128 -302 -128t-303 130q-101 117 -101 283zM1404 357q0 -133 32 -195t72.5 -91.5 t104 -29.5t104 29t63.5 74q41 82 41 213q0 216 -105 289q-40 29 -103 29q-209 0 -209 -318z" />
<glyph unicode="&#x26;" horiz-adv-x="1533" d="M153 426q0 155 107 264q95 97 246 134q-200 60 -254 230q-14 47 -14 117t29 140t89 121q127 111 364 111q121 0 230 -39q71 -27 98 -27q59 0 109 78h96l-128 -497h-97q8 52 8 115.5t-19.5 110t-58.5 80.5q-84 75 -238 75q-171 0 -228 -141q-22 -55 -22 -130.5t17 -127.5 t49 -89q64 -76 174 -82v-104q-234 0 -302 -211q-23 -69 -23 -155t31 -145t82 -98q97 -74 246 -74q216 0 381 132l-13 387q-4 105 -25.5 127t-53 29t-84.5 12v78h492v-78q-92 -10 -110.5 -30.5t-23.5 -51.5t-7 -86l-40 -1137h-108l-22 607q-140 -97 -411 -97q-265 0 -415 119 q-151 120 -151 333z" />
<glyph unicode="'" horiz-adv-x="512" d="M92 1527l186 179l182 -179q-118 -176 -132 -632h-97q-8 344 -95 549q-19 47 -44 83z" />
<glyph unicode="(" horiz-adv-x="1022" d="M200 793q0 514 324 881q112 126 230 198l58 -60q-362 -314 -392 -854q-5 -80 -5 -149q0 -768 397 -1100l-58 -59q-203 149 -350 384q-204 326 -204 759z" />
<glyph unicode=")" horiz-adv-x="1022" d="M209 -291l58 -59q203 149 350 384q204 326 204 759q0 514 -324 881q-112 126 -230 198l-58 -60q362 -314 392 -854q5 -80 5 -149q0 -768 -397 -1100z" />
<glyph unicode="*" horiz-adv-x="1195" d="M85 1082l52 198q136 -7 366 97q-232 105 -367 95l-51 201l199 53q62 -125 266 -266q-23 248 -101 362l149 146l145 -146q-76 -116 -99 -362q132 92 216 193q30 37 48 75l201 -56l-52 -197q-135 6 -367 -98q231 -104 368 -94l51 -202l-199 -53q-51 97 -192 209l-75 57 q23 -250 102 -362l-148 -145l-146 145q74 110 98 363l-75 -57q-140 -112 -188 -212z" />
<glyph unicode="+" d="M99 753l40 166h477v477h169v-477h475l-40 -166h-435v-475h-169v475h-517z" />
<glyph unicode="," horiz-adv-x="512" d="M76 123l181 179l178 -179q9 -113 -57 -284q-74 -194 -205 -342l-77 53q76 108 102 254q7 42 7 78q0 70 -23 111q-33 57 -106 130z" />
<glyph unicode="-" d="M251 753l41 166h816l-43 -166h-814z" />
<glyph unicode="." horiz-adv-x="512" d="M75 123l182 179l178 -179l-178 -181z" />
<glyph unicode="/" horiz-adv-x="848" d="M69 -30l558 1688h152l-556 -1688h-154z" />
<glyph unicode="0" horiz-adv-x="1365" d="M106 664q0 85 16.5 169.5t49 161t81 142t113.5 113.5q138 103 321 103q269 0 428 -217q144 -196 144 -473q0 -283 -144 -475q-159 -214 -428 -214q-185 0 -323 103q-124 92 -194 255q-64 152 -64 332zM218 663q0 -366 304 -450q72 -20 166.5 -20t164.5 19.5t121 54t84 80 t53 97.5q36 95 36 185t-8 147t-28 110t-53 98.5t-84 79.5q-110 73 -284 73q-335 0 -434 -256q-38 -97 -38 -218z" />
<glyph unicode="1" horiz-adv-x="1025" d="M137 0v100q155 7 196.5 22.5t59.5 39.5t18 65v849q0 52 -9 82t-38 46q-46 24 -227 24v99h474v-1100q0 -75 72 -102q55 -20 205 -25v-100h-751z" />
<glyph unicode="2" horiz-adv-x="1364" d="M152 896l125 501h111q-5 -67 36 -77q12 -3 22.5 -3t25.5 3l32 7q105 24 181.5 24t154.5 -28t138 -81q134 -115 134 -294q0 -173 -138 -335q-92 -107 -237 -226l-268 -214h466q117 0 179 49q57 45 102 161h98l-106 -461h-98q-15 78 -83 78h-846l-23 41l284 241 q288 248 396 432q60 100 60 195q0 187 -148 251q-54 23 -136 23q-131 0 -218.5 -73t-145.5 -214h-98z" />
<glyph unicode="3" horiz-adv-x="1195" d="M88 942l133 465h96q-9 -80 63 -80h648q0 -359 -334 -608q266 -46 364 -239q36 -72 36 -180.5t-41 -209t-108.5 -183t-154.5 -147.5t-179 -114q-165 -88 -348 -135l-43 86q194 46 408 202q161 118 232 271q38 80 38 156t-26 137t-78 110q-117 111 -305 105l-47 -24 q-24 -11 -46 -20l-52 82q206 76 345 236q122 140 155 301h-445q-83 0 -131 -59q-35 -42 -80 -152h-100z" />
<glyph unicode="4" horiz-adv-x="1533" d="M75 304l993 1341l-34 -1269h127q80 0 125 50q37 40 83 161h98l-88 -434h-96q-6 35 -26.5 56.5t-49.5 21.5h-177l-19 -740h-126l-17 740h-769zM259 376h606l-16 722z" />
<glyph unicode="5" horiz-adv-x="1195" d="M93 761l252 567h430q115 0 171 120q18 37 36 82h101l-110 -377h-568l-108 -230q262 -11 446 -131q139 -90 199 -249q30 -82 32 -186q-6 -226 -134 -418q-109 -161 -290 -281q-156 -102 -312 -147l-43 85q229 89 377 234q114 111 172 256q41 102 41 191t-28 155t-76 119 t-111.5 93t-135.5 66q-141 53 -291 53q-26 0 -50 -2z" />
<glyph unicode="6" horiz-adv-x="1364" d="M137 614.5q0 132.5 27.5 257.5t80.5 242t131 221t180 187q214 174 491 214l30 -96q-245 -49 -428 -253q-174 -194 -244 -473q76 95 240 128q49 10 116.5 10t138.5 -22.5t127 -61t96.5 -88.5t66.5 -106q53 -109 53 -227.5t-38 -224.5t-109 -183q-151 -165 -397 -165 q-242 0 -401 184q-75 86 -118 205t-43 251.5zM365 608.5q0 -28.5 3.5 -84.5t15 -117t34 -121t60.5 -107q84 -106 227 -106q170 0 250 145q62 112 62 291q0 235 -121 343q-78 68 -199 68q-161 0 -269 -104q-35 -33 -55 -74q-6 -49 -6 -64l-1 -28q-1 -13 -1 -41.5z" />
<glyph unicode="7" horiz-adv-x="1199" d="M56 970l112 372h902l37 -51l-614 -1788l-104 25l445 1642h-456q-130 0 -186 -118l-37 -82h-99z" />
<glyph unicode="8" horiz-adv-x="1364" d="M148 399q0 172 88.5 292t273.5 200q-235 153 -273 329q-12 56 -12 134t41.5 149.5t107.5 119.5q135 97 314 97q220 0 350 -123q115 -109 115 -264q0 -136 -97 -249q-76 -89 -206 -158q326 -181 354 -378q9 -60 9 -107.5t-8.5 -94t-30 -96.5t-59 -99t-95.5 -88 q-128 -87 -325 -87q-243 0 -403 136q-70 61 -107 136.5t-37 150.5zM372 451.5q0 -75.5 23.5 -139.5t68.5 -115q101 -114 258 -114q128 0 218 79q87 76 87 183q0 183 -226 347q-61 45 -102 71l-106 70q-149 -73 -201 -241q-20 -65 -20 -140.5zM404 1413q0 -76 30.5 -135.5 t80.5 -113.5q89 -96 249 -189q82 72 114 129q63 114 63 242q0 108 -59 182q-72 90 -206 90q-130 0 -204 -68q-68 -61 -68 -137z" />
<glyph unicode="9" horiz-adv-x="1361" d="M137 822q0 88 38.5 192.5t110.5 180.5q150 160 399 160q243 0 399 -173q159 -176 159 -456q0 -254 -108 -496q-112 -250 -311 -417q-217 -182 -491 -220l-30 101q248 47 427 245q173 190 245 466q-156 -128 -336 -128q-163 0 -286 86q-157 109 -203 313q-13 58 -13 146z M363 820q0 -156 67 -274q51 -89 148 -128q49 -19 106 -19t105.5 14.5t90.5 40.5q86 52 127 133q8 45 8 98.5t-1.5 106t-11 113t-30 123t-57.5 112.5q-84 114 -236 114q-170 0 -252 -144q-64 -112 -64 -290z" />
<glyph unicode=":" horiz-adv-x="512" d="M76 123l182 179l178 -179l-178 -181zM76 1010l182 179l178 -179l-178 -181z" />
<glyph unicode=";" horiz-adv-x="512" d="M74 123l181 179l178 -179q9 -113 -57 -284q-74 -194 -205 -342l-77 53q76 108 102 254q7 42 7 78q0 70 -23 111q-33 57 -106 130zM76 1010l182 179l178 -179l-178 -181z" />
<glyph unicode="&#x3c;" d="M142 779v120l1005 467l70 -151l-808 -376l808 -377l-70 -151z" />
<glyph unicode="=" d="M148 525l40 167h1024l-41 -167h-1023zM148 977l40 167h1024l-41 -167h-1023z" />
<glyph unicode="&#x3e;" d="M142 462l808 377l-808 376l70 151l1005 -467v-120l-1005 -468z" />
<glyph unicode="?" horiz-adv-x="1195" d="M82 1255l121 501h115q2 -37 24.5 -58.5t49.5 -21.5l196 11q212 0 348 -110q145 -119 145 -331q0 -195 -115 -340q-117 -148 -306 -188l-23 -290h-96l-40 387h63q278 42 278 412q0 154 -74 251q-76 101 -203 101q-145 0 -223 -64q-83 -69 -147 -260h-113zM407 123l182 179 l178 -179l-178 -181z" />
<glyph unicode="@" horiz-adv-x="2220" d="M169 397.5q0 192.5 39 343t110 274t169.5 219.5t217.5 162q243 133 537 133q344 0 582 -213q157 -140 216 -344q30 -103 30 -205t-21.5 -192t-61.5 -173.5t-96 -157t-126 -127.5q-152 -117 -322 -117q-125 0 -169 112q-12 33 -17 68q-83 -115 -209 -164q-43 -16 -103 -16 t-116 33t-93 89q-72 108 -72 276q0 261 160 476q103 139 252 197q74 29 145.5 29t127.5 -15t104 -39q97 -48 145 -114l-150 -657q-18 -80 -18 -113q0 -66 55 -66q113 0 211 102q137 141 182 398q13 77 13 160t-19 169t-55.5 162.5t-91.5 141t-127 111.5q-152 99 -356 99 q-355 0 -608 -257q-177 -178 -246 -468q-36 -149 -36 -313.5t53.5 -296t150.5 -228.5q209 -211 517 -211t518 137l29 -88q-131 -103 -382 -148q-78 -14 -202.5 -14t-260 37.5t-237 102t-172 150.5t-114.5 182q-83 181 -83 373.5zM856 420q0 -123 29.5 -185t60 -87.5 t70.5 -25.5t81 20t78 60q82 89 118 234l129 508q-58 56 -158 56q-110 0 -212 -102q-89 -89 -147 -232q-55 -137 -49 -246z" />
<glyph unicode="A" horiz-adv-x="1534" d="M46 0v83q114 20 129.5 34.5t16.5 35t1 57.5l-1 103v54q0 529 134 787q85 166 255 302q82 65 184 133h1q223 -149 328 -275q127 -151 182 -364q56 -218 56 -581v-56l-1 -101q0 -38 3 -59t18 -33q19 -17 136 -37v-83h-549v83q131 15 157 43q21 23 23.5 69t2.5 89v242h-719 v-242q0 -65 3.5 -101.5t21.5 -56t55 -27.5t104 -16v-83h-541zM405 638h715q-2 258 -72 426q-74 177 -283 384q-141 -141 -197.5 -231.5t-82.5 -152.5t-43 -129q-28 -118 -37 -297z" />
<glyph unicode="B" horiz-adv-x="1530" d="M91 0v83q115 10 139 34.5t29 54t5 77.5v1032q0 96 -22.5 118.5t-57 30.5t-93.5 13v87h260q66 0 148 7q151 13 265.5 13t222.5 -24t177 -68q134 -85 134 -244q0 -204 -154 -322q-51 -39 -121 -63q298 -50 378 -242q25 -60 25 -142.5t-37.5 -171t-116.5 -155.5 q-173 -148 -490 -148q-79 0 -174 10q-175 20 -257 20h-260zM467 292q0 -100 49 -144q70 -62 270 -62q228 0 330 102q84 84 84 230q0 213 -161 300q-60 33 -120 37.5t-93 6.5l-68 4q-35 2 -68.5 3.5t-63.5 3.5v94l207 13q131 13 192 114q47 77 47 201q0 118 -66 177 q-80 71 -274 71q-234 0 -258 -125q-7 -37 -7 -80v-946z" />
<glyph unicode="C" horiz-adv-x="1531" d="M120 755q0 203 88 383q142 289 454 382q107 31 195 31t128 -4.5t73 -12t60 -16.5l51 -17q87 -30 137 -30t111 82h95l-132 -530h-96q5 60 5 95q0 75 -15.5 127.5t-54.5 88t-91 59.5q-108 49 -221.5 49t-192.5 -28.5t-138.5 -77.5t-101.5 -116t-68 -144q-51 -147 -51 -328 q0 -248 134 -428q95 -126 258 -178q83 -27 172 -27t153 10.5t120 32.5q112 42 206 134l50 -67q-77 -115 -217.5 -182.5t-338.5 -67.5q-366 0 -578 237q-194 219 -194 543z" />
<glyph unicode="D" horiz-adv-x="1537" d="M64 0v83q57 8 91 15.5t52 25.5q30 29 30 141v1004q0 113 -24 135t-58 28t-91 11v88h291l80 -1q46 0 87 2l72 5q110 7 149 7q342 0 541 -174q215 -187 215 -553q0 -381 -200 -608q-207 -234 -573 -234q-95 0 -172 8l-126 13q-49 5 -73 5zM440 217q0 -88 198 -119 q59 -10 113 -10q405 0 495 435q29 143 29 319t-41 288.5t-115 181.5q-139 131 -405 131q-170 0 -246 -58q-28 -22 -28 -56v-1112z" />
<glyph unicode="E" horiz-adv-x="1533" d="M107 725q0 330 183 569q123 161 317 226q98 32 182.5 32t125 -5t72.5 -13t57.5 -17.5t55.5 -19.5q82 -28 132 -28t109 82h96l-133 -530h-95q5 77 5 108q0 66 -15.5 116.5t-52.5 86.5t-88 61q-102 50 -224.5 50t-210 -49t-147.5 -134q-113 -163 -135 -443h645l-27 -113 h-621q10 -233 154 -408q159 -192 406 -192q300 0 477 188l50 -67q-133 -181 -397 -233q-83 -17 -172 -17q-173 0 -312 60.5t-236 163.5q-201 213 -201 526z" />
<glyph unicode="F" horiz-adv-x="1364" d="M86 0v83q57 8 91 15.5t52 25.5q30 29 30 141v1002q0 114 -24 136t-58 28.5t-91 11.5v87h1253l-105 -430h-95q21 113 21 165t-12.5 80.5t-41.5 44.5q-49 28 -191 28h-454v-576h596l-27 -114h-569v-463q0 -58 7.5 -90.5t36 -49.5t84.5 -25t152 -17v-83h-655z" />
<glyph unicode="G" horiz-adv-x="1700" d="M96 761q0 321 197 543q218 247 600 247q125 0 235 -33l57 -17q95 -30 145 -30t111 82h95l-133 -510h-95l4 57q1 25 1 50q0 124 -73 184q-83 70 -221 96q-65 13 -151 13t-171 -28.5t-147.5 -77.5t-103.5 -115.5t-66 -141.5q-45 -136 -45 -319q0 -260 124 -447 q145 -219 420.5 -219t402.5 115l-12 292q-4 113 -50 142q-38 25 -197 36v85h568v-85q-30 -6 -50.5 -12t-32.5 -23q-23 -31 -27 -143l-43 -890h-125l-25 446q-168 -84 -405 -84q-374 0 -589 244q-198 226 -198 543z" />
<glyph unicode="H" horiz-adv-x="1698" d="M104 1443v87h543v-87q-57 -6 -91 -11.5t-52 -21.5q-29 -27 -29 -143v-418h745v418q0 114 -23.5 136t-57.5 28.5t-91 11.5v87h545v-87q-56 -6 -90 -11.5t-52 -21.5q-30 -28 -30 -143v-1002q0 -58 4.5 -90.5t22 -49.5t52 -25t93.5 -17v-83h-545v83q56 8 90 15.5t52 25.5 q30 29 30 141v471h-745v-471q0 -113 22.5 -135t56.5 -30t93 -17v-83h-535v83q57 8 89.5 15.5t49 25t20.5 50.5t4 91v1002q0 113 -23 135.5t-57 29t-91 11.5z" />
<glyph unicode="I" horiz-adv-x="848" d="M154 0v82l2 1l32 5q91 12 110 33q29 33 29 144v1002q0 114 -24 136t-58 28.5t-91 11.5v87h547v-87q-56 -6 -90 -11.5t-52 -21.5q-30 -28 -30 -143v-1002q0 -112 18 -134t44.5 -28.5t71.5 -13.5l38 -6v-83h-547z" />
<glyph unicode="J" horiz-adv-x="683" d="M-41 -497q146 142 196.5 225.5t72.5 147.5t34 140q21 123 21 376v874q0 112 -43 144q-22 17 -59 22.5t-91 10.5v87h588v-87q-60 -6 -97.5 -11.5t-58.5 -21.5q-36 -29 -36 -143v-838q0 -282 -28 -408.5t-62 -201t-87 -139.5q-99 -123 -296 -245z" />
<glyph unicode="K" horiz-adv-x="1533" d="M102 0v83l35 5q91 12 109.5 33t23.5 53.5t5 90.5v1002q0 114 -23.5 136t-58 28.5t-91.5 11.5v87h549v-87q-58 -5 -92.5 -10.5t-52.5 -22.5t-23 -50t-5 -93v-1002q0 -112 20.5 -134t50 -28.5t80.5 -13.5l43 -6v-83h-570zM581 724l410 546q70 80 70 126.5t-148 46.5v87h517 v-87q-89 -11 -154 -73q-22 -21 -46 -49l-406 -530l793 -1035l-68 -57z" />
<glyph unicode="L" horiz-adv-x="1364" d="M74 0v84q127 12 151 33.5t28.5 48.5t4.5 69v1062q0 85 -25 105.5t-61.5 28t-97.5 12.5v87h583v-86q-122 -6 -150.5 -26t-36.5 -46.5t-8 -70.5v-1091q0 -66 60 -85q47 -15 176.5 -15t200.5 3t121 14t83 32.5t57 57.5q34 53 82 219h93l-77 -514h-86q-3 37 -24.5 57.5 t-56.5 20.5h-1017z" />
<glyph unicode="M" horiz-adv-x="2224" d="M31 0v83q90 13 114 23q38 18 47 61l292 1392h74l553 -1221l536 1221h68l281 -1293q24 -118 60 -147q20 -17 52 -23t84 -13v-83h-569v83q106 17 129 30q37 20 37 76q0 15 -3 35l-5 42l-161 838l-510 -1154h-67l-520 1154l-172 -901q-3 -18 -3 -35.5t9 -32.5t31 -25 q42 -19 153 -27v-83h-510z" />
<glyph unicode="N" horiz-adv-x="1703" d="M45 0v83l45 6q89 14 110 28q38 25 38 93v1348l85 30l984 -1238v937q0 96 -40 125q-30 22 -154 33v85h528v-85q-53 -6 -88 -11.5t-56 -20.5q-38 -27 -38 -123v-1314l-78 -23l-991 1247v-959q0 -86 40 -116q29 -21 95 -30.5t79 -11.5v-83h-559z" />
<glyph unicode="O" horiz-adv-x="1703" d="M119 756q0 98 20 195t60.5 185.5t101.5 164t142 131.5q172 119 408 119q349 0 551 -251q182 -225 182 -544q0 -322 -182 -538q-200 -238 -551 -238q-353 0 -551 240q-181 218 -181 536zM358 805.5q0 -131.5 9 -213.5t30.5 -157t57.5 -140t91 -113q118 -101 307 -101 q352 0 456 353q40 136 40 322q0 540 -321 659q-75 28 -175 28q-353 0 -455 -365q-40 -141 -40 -272.5z" />
<glyph unicode="P" horiz-adv-x="1361" d="M96 0v82q5 2 15 2.5t35.5 4t52.5 10.5t43 25q27 31 27 140v1013q0 97 -22.5 120t-57 32t-93.5 14v87h260q97 0 194.5 11t224 11t225.5 -40.5t157 -108.5q104 -122 104 -343q0 -224 -118 -364q-136 -161 -401 -161q-61 0 -141 20l17 93q42 -8 113.5 -8t132 30t98.5 84 q73 104 73 294q0 183 -47 272q-66 123 -255 123q-232 0 -255 -113q-7 -35 -7 -76v-990q0 -58 6 -90t26 -49t58.5 -23.5t103.5 -13.5l55 -6v-82h-624z" />
<glyph unicode="Q" horiz-adv-x="1704" d="M118 756q0 319 182 544q202 251 551 251t551 -251q182 -225 182 -544q0 -163 -52.5 -312.5t-158.5 -261.5l383 -498l-60 -52l-486 426q-158 -84 -359 -84q-354 0 -553 243q-180 221 -180 539zM357 805.5q0 -131.5 9 -214t30.5 -158t57.5 -141t91 -114.5 q117 -103 307 -103q352 0 456 357q40 138 40 324q0 540 -320 659q-76 28 -176 28q-353 0 -456 -365q-39 -141 -39 -272.5z" />
<glyph unicode="R" horiz-adv-x="1533" d="M91 -1v83l34 5q44 6 71 12.5t42 24.5q26 30 26 141v1012q0 98 -22.5 121t-57 32t-93.5 14v86h260q57 0 151 8q182 14 284.5 14t207 -34t172.5 -93q132 -116 132 -306q0 -143 -86 -266q-97 -141 -286 -203l681 -934l-75 -57l-875 981l44 89h76q119 0 201 93q93 108 93 286 q0 335 -326 335q-242 0 -270 -128q-8 -37 -8 -78v-972q0 -59 6 -91t26 -49t58.5 -23.5t103.5 -13.5l54 -6v-83h-624z" />
<glyph unicode="S" horiz-adv-x="1364" d="M137 314q0 56 24.5 99.5t60.5 74.5q67 59 146 74l54 -64q-37 -51 -42.5 -85.5t-5.5 -77t27 -90.5t73 -85q102 -81 241 -81q241 0 313 153q23 49 23 116t-36.5 117.5t-94 90t-129.5 73t-162.5 80.5t-172 100.5t-134.5 108.5q-105 110 -105 252q0 175 144 280 q138 101 353 101q199 0 334 -65q142 -68 142 -180q0 -106 -96 -175q-34 -25 -85 -40l-74 49q46 62 46 117.5t-23 88t-62 54.5q-81 45 -210 45q-117 0 -194 -63q-77 -64 -77 -166q0 -115 100 -197q50 -41 123 -81q272 -141 352 -185.5t143 -98.5q136 -115 136 -258 q0 -215 -166 -324q-147 -96 -400 -96q-198 0 -371 86q-120 60 -170 150q-25 46 -25 102z" />
<glyph unicode="T" horiz-adv-x="1533" d="M50 1101l112 429h1296l-105 -430h-96q21 113 21 165.5t-12.5 82t-41.5 46.5q-50 30 -190 30h-169v-1155q0 -58 7 -90.5t34 -49.5t80.5 -25t146.5 -17v-87h-730v87q177 17 209.5 38t41 53.5t8.5 90.5v1155h-192q-180 0 -260 -176q-25 -54 -50 -116l-12 -31h-98z" />
<glyph unicode="U" horiz-adv-x="1700" d="M55 1443v87h513v-87q-101 -10 -132 -44q-29 -31 -29 -163t5 -262.5t21.5 -234.5t46.5 -186.5t80 -156.5q89 -131 301 -300q206 168 293 300q89 136 118 341q21 153 21 537q0 94 -23 119q-37 40 -137 50v87h511v-87q-96 -12 -119 -45q-21 -30 -21 -186t-15.5 -311 t-48.5 -277t-84.5 -217t-122.5 -173q-122 -135 -372 -281q-257 145 -385 281q-149 158 -214 390q-66 237 -66 630q0 115 -16 139q-26 41 -125 50z" />
<glyph unicode="V" horiz-adv-x="1530" d="M26 1444v87h502v-87q-119 -4 -150 -28q-15 -11 -15 -21.5t17 -54.5l417 -1066q321 844 349 922l42 122q16 45 16 60.5t-10.5 30t-30.5 21.5q-33 13 -114 13v87h455v-87q-68 -9 -88 -33.5t-31 -50.5l-573 -1418h-70l-561 1367q-28 70 -50 90q-37 37 -105 46z" />
<glyph unicode="W" horiz-adv-x="2223" d="M83 1443v87h512v-87q-109 -10 -137 -41q-15 -18 -18 -49t-3 -143.5t1 -246.5t8.5 -240t24 -190t46.5 -160q54 -136 192 -311q144 168 205 306q83 187 89 574q2 129 2 244.5t-4 153t-19 58.5q-27 35 -132 45v87h523v-87q-54 -7 -85.5 -16t-47.5 -30q-24 -33 -24 -184.5 t2.5 -286t12.5 -238.5t29 -184.5t52 -151.5q58 -124 201 -290q136 172 191 311q76 193 79 590q1 134 1 246.5t-3 143.5t-18 49q-26 31 -135 41v87h511v-87q-104 -8 -127 -42q-19 -29 -19 -189.5t-10 -317.5t-33 -282.5t-59.5 -224t-90.5 -179.5q-98 -150 -287 -288 q-303 265 -401 573q-114 -334 -403 -573q-192 142 -287 288q-155 235 -184 686q-10 157 -10 285.5t-3 163.5t-17 55q-23 31 -125 45z" />
<glyph unicode="X" horiz-adv-x="1533" d="M54 0v84q94 8 114 23.5t28 35.5t14.5 46.5t16 62t28.5 81t50 100t77 111.5q107 132 262 233q-281 163 -380 413q-28 71 -40 144q-18 67 -41 81q-33 21 -129 29v86h526v-86q-96 0 -117 -11t-24 -22t-3 -25t5 -47t17.5 -78.5t35 -99.5t58.5 -109q81 -129 203 -209 q230 146 323 417q27 81 27 110.5t-5.5 40.5t-19.5 18q-32 15 -107 15v86h493v-86q-101 -8 -122 -22.5t-29.5 -34.5t-15.5 -49l-17 -65q-55 -216 -265 -391q-64 -54 -150 -103q297 -182 408 -449q19 -45 29 -80l14 -54q9 -37 16 -57.5t22 -30.5q22 -16 121 -24v-84h-526v84 q97 6 117.5 15t23.5 19t3 25q0 85 -63 232q-87 203 -277 345q-232 -173 -323 -448q-28 -82 -28 -129q0 -15 3.5 -25t20.5 -16q32 -12 152 -18v-84h-526z" />
<glyph unicode="Y" horiz-adv-x="1530" d="M77 1443v87h512v-87q-104 -10 -138 -44q-33 -33 -33 -116.5t3 -151t14.5 -128.5t34 -116t60.5 -105q80 -103 236 -183q227 118 295 288q42 104 46.5 208t4.5 164.5t-7.5 90.5t-26.5 49q-34 34 -136 44v87h511v-87q-95 -12 -119 -45q-21 -29 -21 -143q0 -541 -447 -743 v-247q0 -58 5.5 -90.5t26.5 -49.5t62 -25t112 -17v-83h-613v83q139 16 166 37.5t33.5 54t6.5 90.5v247q-448 197 -448 743q0 52 -2 86t-15 55q-25 38 -123 47z" />
<glyph unicode="Z" horiz-adv-x="1364" d="M61 1101l134 510h93q-1 -8 -1 -15q1 -30 15 -46q18 -20 47 -20h938l22 -59l-920 -1348h530q165 0 225 73q32 38 49 98.5t34 146.5h97l-63 -519h-98q0 55 -43 73q-12 5 -24 5h-987l-23 61l933 1348h-565q-125 0 -182 -63q-29 -32 -48 -78t-41 -107l-22 -60h-100z" />
<glyph unicode="[" horiz-adv-x="848" d="M200 -150v1967h462v-103h-186q-42 0 -68 -25t-26 -69v-1556q0 -107 101 -107h179v-107h-462z" />
<glyph unicode="\" horiz-adv-x="848" d="M69 1658h154l556 -1688h-152z" />
<glyph unicode="]" horiz-adv-x="848" d="M185 -43v-107h462v1967h-462v-103h186q42 0 68 -25t26 -69v-1556q0 -107 -101 -107h-179z" />
<glyph unicode="^" d="M137 651l487 1002h121l487 -1002l-142 -71l-395 737h-11l-405 -737z" />
<glyph unicode="_" horiz-adv-x="1189" d="M-12 -194h1212v-118h-1212v118z" />
<glyph unicode="`" horiz-adv-x="850" d="M182 1736l201 134l253 -466l-89 -55z" />
<glyph unicode="a" d="M169 303q0 149 173 275q208 154 597 162v175q0 208 -277 208q-158 0 -216 -101q-17 -31 -17 -71.5t38 -97.5l-68 -41q-118 20 -171 99q-19 27 -19 70t35 89.5t98 81.5q138 76 348 76q342 0 425 -198q26 -62 26 -137v-627q0 -116 22 -139.5t53.5 -30.5t84.5 -12v-84h-248 q-74 0 -169 -8q-195 -18 -300 -18t-185 28t-131 74q-99 89 -99 227zM398 303q0 -159 161 -205q50 -15 125 -15t127.5 8.5t81 30.5t37.5 60.5t9 99.5v354q-541 -32 -541 -333zM939 636h2l-2 1v-1z" />
<glyph unicode="b" horiz-adv-x="1362" d="M101 0v83q115 10 139 34.5t29 54t5 77.5v1226q0 96 -36 123q-24 18 -137 29v83h549v-83q-112 -11 -134 -27q-38 -27 -38 -125v-370q92 98 246 130q49 10 113.5 10t133.5 -24.5t125 -67.5t99 -101.5t71 -127.5q59 -143 59 -303q0 -260 -143 -447q-98 -127 -250 -178 q-77 -26 -148 -26q-92 0 -192 10q-187 20 -231 20h-260zM478 293q0 -95 54 -145q70 -62 236 -62t254 162q78 140 78 373q0 338 -150 461q-56 46 -130 46t-134 -22t-106 -60q-102 -83 -102 -197v-556z" />
<glyph unicode="c" horiz-adv-x="1195" d="M85 608q0 271 143 448q154 189 414 189q128 0 247 -51q18 -8 26 -9q65 17 77 81h79v-428h-83q-54 301 -331 301q-178 0 -267 -165q-77 -140 -77 -368q0 -391 237 -482q53 -20 123 -20q198 0 365 129l57 -55q-117 -142 -325 -188q-66 -14 -132 -14q-259 0 -412 192 q-141 179 -141 440z" />
<glyph unicode="d" horiz-adv-x="1363" d="M123 606q0 253 135 433q149 198 406 198q159 0 270 -82q-155 460 -621 563l21 88q459 -68 691 -388q208 -288 208 -715q0 -336 -153 -532q-153 -195 -410 -195q-246 0 -402 198q-145 182 -145 432zM352 603q0 -342 166 -469q62 -47 160.5 -47t163.5 45t101 124 q62 137 62 422q0 451 -322 451q-181 0 -263 -163q-68 -132 -68 -363z" />
<glyph unicode="e" horiz-adv-x="1195" d="M101 587q0 279 159 461q158 180 405 180q189 0 295 -80q101 -75 101 -206q0 -169 -164 -285q-191 -135 -578 -138q35 -409 370 -409q210 0 322 96l57 -57q-137 -169 -411 -169q-264 0 -413 171q-143 165 -143 436zM316 626q356 7 482 169q46 60 46 149q0 116 -100 160 q-39 17 -97 17t-103 -20.5t-81 -56t-63 -83t-45 -102.5q-37 -113 -39 -233z" />
<glyph unicode="f" horiz-adv-x="854" d="M98 0v85q113 8 138 29t31 48t6 69v855h-167v93q103 14 129.5 32.5t33 37t6.5 45.5v56q0 257 129 366q116 99 364 99h117l9 -107l-122 -16q-160 -21 -226 -84q-72 -67 -72 -211v-189h339v-122h-337v-834q0 -52 8 -82.5t34 -47.5q39 -25 206 -37v-85h-626z" />
<glyph unicode="g" horiz-adv-x="1364" d="M99 588q0 263 139 442q154 198 436 198q80 0 167 -6q166 -13 207 -13h259v-85q-114 -8 -138 -32.5t-29 -55t-5 -78.5v-907q0 -260 -143 -441q-155 -197 -417 -197q-131 0 -253 60l39 108q86 -34 193 -34t180.5 43.5t117.5 113.5q79 129 79 345v65q-130 -138 -313 -138 q-252 0 -393 187q-126 167 -126 425zM326 588q0 -501 300 -501q130 0 218 84q87 83 87 200v545q0 101 -33 136q-64 68 -228 68q-344 0 -344 -532z" />
<glyph unicode="h" horiz-adv-x="1535" d="M151 0v82l2 1q59 7 93 14.5t51 25.5q26 28 26 138v1212q0 111 -23.5 133t-57.5 28.5t-91 11.5v84h549v-84q-56 -6 -90 -12t-52 -22q-31 -26 -31 -139v-473q90 177 333 300q174 -93 264 -203q147 -180 178 -525q10 -121 10 -233t3 -152t16.5 -60t38 -26.5t49 -10.5 t35 -4.5t20.5 -2.5v-83h-543v83q57 7 91 13.5t52 24.5q29 29 29 161v117q0 227 -11 316.5t-27.5 146.5t-44.5 108q-53 95 -169 189q-149 -91 -221 -187q-103 -138 -103 -341v-339q0 -69 4 -107.5t21.5 -58.5t52 -27.5t95.5 -15.5v-83h-549z" />
<glyph unicode="i" horiz-adv-x="680" d="M85 0v83l35 5q43 6 70 12.5t42 23.5q26 31 26 142v678q0 114 -24 137.5t-58 29.5t-91 11v86h547v-86q-57 -6 -91 -12t-52 -23q-29 -27 -29 -143v-678q0 -114 18 -135t44.5 -28t70.5 -14l39 -6v-83h-547zM168 1607l182 179l178 -179l-178 -181z" />
<glyph unicode="j" horiz-adv-x="680" d="M-54 -497l43 42q20 20 53 51t69.5 69t63.5 76.5t45 82t30 100.5q20 102 20 307v735q0 97 -32 124q-27 21 -141 32v86h548v-86q-57 -6 -91 -12t-52 -23q-30 -28 -30 -143v-634q0 -274 -28 -382t-62 -167.5t-86 -112.5q-81 -80 -296 -213zM180 1607l182 179l178 -179 l-178 -181z" />
<glyph unicode="k" horiz-adv-x="1364" d="M80 0v83l34 5q91 12 110 33q28 32 28 145v1182q0 113 -23.5 136t-57.5 29.5t-91 11.5v85h548v-85q-57 -6 -91 -12t-52 -23q-30 -27 -30 -142v-1182q0 -114 18.5 -135.5t45 -28t71.5 -13.5l38 -6v-83h-548zM525 650l325 314l26 24q13 12 25 24l22 24q22 24 22 39.5 t-10.5 25t-27.5 13.5q-28 8 -78 8v87h530v-81q-166 -18 -276 -129l-306 -310l613 -854l-68 -57z" />
<glyph unicode="l" horiz-adv-x="686" d="M89 0v83l35 5q43 6 70 12.5t42 23.5q26 31 26 141v1203q0 114 -24 136.5t-58 29t-91 11.5v85h375v-1465q0 -104 34 -137q25 -25 120 -38l48 -7v-83h-577z" />
<glyph unicode="m" horiz-adv-x="2213" d="M147 0v83l28 4q94 13 113 33t24 51.5t5 88.5v713q0 91 -23 111.5t-56.5 27t-90.5 10.5v86h373v-208q43 93 96 146q91 93 210 154q127 -72 189 -135q104 -108 154 -228q79 160 245 283q54 41 119 82q189 -105 287 -217q153 -174 182 -515q10 -119 10 -229.5t5.5 -150.5 t20 -61t39.5 -28t65 -13l38 -5v-83h-547v83q57 7 91 13.5t52 24.5q30 30 30 161l1 151v21q0 269 -49 404q-54 151 -225 302q-123 -103 -179 -211t-71 -233q-21 -176 -21 -345.5t6 -200t22 -46.5q24 -24 118 -37l27 -4v-83h-548v83q57 7 91 13t52 24q29 28 29 156v121 q0 322 -32.5 436.5t-81 185.5t-129.5 140q-136 -87 -206 -195q-90 -140 -90 -333v-339q0 -132 19.5 -158t48.5 -33.5t79 -14.5l26 -3v-83h-546z" />
<glyph unicode="n" horiz-adv-x="1538" d="M152 0v82q6 3 15.5 3.5t35 4t53 10.5t42.5 24q25 27 25 136v713q0 91 -23 111.5t-57 27t-91 10.5v86h374v-208q91 181 326 300q173 -92 266 -202q147 -177 178 -526q10 -120 10 -232t4 -152t17 -60.5t38 -27t50 -10.5t35.5 -4.5t21.5 -2.5v-83h-547v83q57 7 91 13.5 t52 24.5q29 29 29 161v116q0 229 -11 317.5t-27.5 146t-44.5 108.5q-55 96 -172 189q-316 -195 -316 -528v-339q0 -132 19.5 -158t48.5 -33.5t79 -14.5l26 -3v-83h-547z" />
<glyph unicode="o" horiz-adv-x="1364" d="M121 610q0 78 15.5 155t47 146t78.5 127t109 100q133 90 309 90q266 0 420 -190q141 -174 141 -429q0 -257 -141 -437q-154 -196 -420 -196q-265 0 -420 199q-139 180 -139 435zM349 609q0 -408 214 -500q51 -22 118.5 -22t118.5 21.5t88 59.5t61.5 88.5t39.5 108.5 q27 104 27 205.5t-6 164t-21 119t-39.5 105.5t-61.5 85q-80 76 -206 76q-237 0 -306 -272q-27 -103 -27 -239z" />
<glyph unicode="p" horiz-adv-x="1364" d="M66 1125v83h260q62 0 140 6q160 14 246 14t167 -24.5t145 -68t111 -103t78 -130.5q61 -138 61 -282.5t-31 -256t-95 -197.5q-140 -190 -392 -190q-185 0 -313 134v-440q0 -99 41 -124q29 -18 153 -29v-83h-560v82l2 1q101 9 123 26q37 30 37 127v1289q0 98 -22.5 121 t-57 31.5t-93.5 13.5zM443 366q0 -118 87 -198q89 -81 201 -81t170.5 45.5t90.5 118.5q56 125 56 343q0 528 -345 528q-231 0 -253 -128q-7 -37 -7 -78v-550z" />
<glyph unicode="q" horiz-adv-x="1364" d="M128 635q0 99 35 209.5t105 195.5q154 189 419 189q240 0 376 -149q127 -141 127 -367v-1062q0 -75 24 -94q36 -28 148 -38v-85h-547v84l2 1q111 10 134.5 28.5t29.5 44.5t6 70l-1 454q-46 -61 -127 -101t-181.5 -40t-175.5 25.5t-134.5 70t-104.5 105.5t-75 132 t-45 149.5t-15 177.5zM356 612q0 -408 206 -498q50 -21 107.5 -21t111.5 16t99 51q106 79 106 218v299q0 306 -152 406q-57 38 -134.5 38t-128.5 -20.5t-88 -57t-61.5 -85.5t-39.5 -106q-26 -103 -26 -240z" />
<glyph unicode="r" horiz-adv-x="1195" d="M140 0v82l2 1q118 12 141.5 33.5t29 50t5.5 76.5v693q0 109 -21.5 135t-52.5 36t-82 16v85h207q123 0 175 5t82 7q90 8 146.5 8t116.5 -9t106 -31q101 -48 101 -149q0 -81 -66 -151q-62 -66 -138 -87l-55 44q56 54 56 164q0 54 -51 85q-43 25 -131 25q-190 0 -190 -124 v-760q0 -43 8.5 -71t38.5 -45q52 -30 240 -36v-83h-668z" />
<glyph unicode="s" horiz-adv-x="1190" d="M168 251q2 72 62 129q54 51 129 68l44 -51q-38 -47 -38 -126q0 -69 72 -123q80 -61 204.5 -61t196 56t71.5 150q0 110 -184 194q-55 25 -90 39.5t-44 18.5t-49.5 22.5t-105 55.5t-113.5 81q-105 93 -105 210q0 145 128 232q122 82 324 82q156 0 257.5 -62t101.5 -154 q0 -58 -55 -106q-48 -41 -103 -53l-57 41q38 59 38 106.5t-56.5 84t-134.5 36.5t-120 -14t-71 -39q-57 -49 -57 -131q0 -99 166 -183q48 -25 81 -40q253 -114 321 -168.5t98.5 -104.5t30.5 -124t-41 -139t-109 -110q-138 -92 -332 -92q-181 0 -316 74q-144 77 -144 195v6z " />
<glyph unicode="t" horiz-adv-x="856" d="M121 1086v92q146 21 168 43h-1q22 30 39 134t21 153l145 60v-360h362v-122h-362v-807q0 -93 13.5 -118.5t33.5 -37.5t54 -18q55 -10 201 -12v-93h-636v83q45 10 71.5 17.5t39.5 25.5q22 29 22 150v810h-171z" />
<glyph unicode="u" horiz-adv-x="1361" d="M58 1122v86h492v-86q-99 -10 -128 -44q-23 -29 -23 -140t3.5 -207t13.5 -172t29 -136.5t51 -114.5q58 -100 184 -218q129 121 172.5 196.5t62.5 136t29 136.5q17 129 17 284.5t-4 185.5t-19 49q-29 34 -127 44v86h490v-86q-98 -14 -115 -39.5t-20.5 -59.5t-3.5 -138.5 t-11.5 -222.5t-36 -210t-62.5 -162.5t-92 -129.5q-90 -98 -280 -212q-190 114 -280 212q-158 173 -190 502q-12 118 -12 220.5t-2 137t-16 55.5q-24 38 -122 47z" />
<glyph unicode="v" horiz-adv-x="1191" d="M-12 1124v84h489v-86q-71 -3 -90 -9q-39 -12 -39 -49q0 -21 12 -54l265 -707l240 633q28 75 28 106t-10 45t-27 22q-28 13 -91 13v86h439v-84q-98 0 -156 -149l-407 -1020h-73l-395 999q-37 94 -63 120q-39 38 -122 50z" />
<glyph unicode="w" horiz-adv-x="2050" d="M64 1124v84h501v-84q-110 -9 -137 -46q-21 -28 -21 -140.5t2.5 -211t11 -177.5t25.5 -142.5t46 -120.5q54 -106 174 -226q126 124 165.5 200t56 137t24.5 136q13 110 13 279.5t-4 208t-19.5 60t-47 30t-85.5 13.5v84h513v-84q-54 -7 -85.5 -14.5t-47.5 -27.5 q-25 -31 -25 -163.5t3 -231t13 -175t27.5 -135.5t46.5 -111q51 -91 170 -206q121 121 174 226q54 109 66 225q18 163 18 326t-3 194.5t-18 50.5q-27 32 -136 42v84h501v-84q-99 -13 -122 -39q-24 -29 -24 -169t-9.5 -259.5t-31.5 -214t-56.5 -169t-85.5 -135.5 q-91 -110 -273 -219q-132 87 -198 159q-111 122 -160 242q-56 -128 -120 -198q-109 -119 -240 -203q-182 109 -273 219q-146 176 -173 518q-10 120 -10 225.5t-3.5 141t-17.5 55.5q-23 32 -125 46z" />
<glyph unicode="x" horiz-adv-x="1364" d="M101 0v82q89 8 108.5 23.5t27 36t17.5 53.5l6 20q81 244 336 408q-211 122 -286 270q-25 48 -37.5 94t-22 70.5t-26.5 38.5q-24 20 -123 30v82h526v-82q-101 -7 -121 -20.5t-21.5 -26t-1.5 -28.5t11 -56t38 -91q68 -128 185 -211q140 82 217 211q56 93 56 146 q0 38 -16 49q-28 20 -117 27v82h471v-82q-89 -10 -112 -27t-32 -36.5t-18 -47.5l-7 -22q-39 -111 -89 -174q-90 -112 -228 -195q275 -165 339 -409q20 -84 38 -100q25 -23 120 -33v-82h-525v82q95 7 116.5 20.5t24.5 26t3 29t-10 61.5t-37 103q-69 146 -194 237 q-143 -91 -227 -237q-61 -107 -61 -164q0 -38 21 -49q38 -20 155 -27v-82h-504z" />
<glyph unicode="y" horiz-adv-x="1361" d="M50 1122v86h504v-86l-25 -3q-45 -6 -71.5 -12.5t-40.5 -24.5q-22 -30 -22 -156v-116q0 -153 6.5 -265t32.5 -199q49 -166 215 -297q307 189 307 529v338q0 135 -18.5 159t-45 31t-71.5 13l-24 3v86h503v-85l-2 -1q-88 -8 -108 -37q-31 -45 -31 -177v-447 q0 -447 -127 -690q-154 -296 -546 -358l-21 105q240 59 354 218q111 154 135 447q-113 -176 -314 -275q-173 92 -266 202q-147 177 -178 526q-10 120 -10 229t-5 150t-19.5 63.5t-41 31t-70.5 12.5z" />
<glyph unicode="z" horiz-adv-x="1193" d="M110 63l744 1023h-363q-119 0 -177 -62q-28 -29 -48 -71l-41 -94h-99l104 400h95q10 -51 82 -51h705l22 -63l-734 -1022h372q145 0 204 53q45 40 85 168h97l-54 -395h-98q-8 51 -72 51h-802z" />
<glyph unicode="{" horiz-adv-x="1022" d="M143 776v121q213 18 263 173q17 55 17 131v172q0 371 265 443q82 22 179 22l1 -92q-140 -20 -194 -83q-56 -64 -56 -210l1 -183q0 -358 -267 -434q267 -76 267 -434l-1 -182q0 -147 54 -210q55 -64 196 -84l-1 -92q-211 0 -319 97q-125 112 -125 369v171q0 219 -157 279 q-53 20 -123 26z" />
<glyph unicode="|" horiz-adv-x="510" d="M182 -193v2102h145v-2102h-145z" />
<glyph unicode="}" horiz-adv-x="1022" d="M153 -74l1 -92q211 0 319 97q125 112 125 369v171q0 219 157 279q53 20 123 26v121q-213 18 -263 173q-17 55 -17 131v172q0 371 -265 443q-82 22 -179 22l-1 -92q140 -20 194 -83q56 -64 56 -210l-1 -183q0 -358 267 -434q-267 -76 -267 -434l1 -182q0 -147 -54 -210 q-55 -64 -196 -84z" />
<glyph unicode="~" horiz-adv-x="1370" d="M131 730q138 245 378 245q79 0 192 -53l102 -46q68 -30 110 -30q151 0 253 147l72 -54q-66 -116 -127 -165q-116 -96 -251 -96q-69 0 -127 23t-109 48l-70 33q-62 31 -126 31q-128 0 -226 -137z" />
<glyph unicode="&#xa1;" horiz-adv-x="512" d="M99 1539l179 181l181 -181l-181 -178zM104 135q81 217 113 686q15 209 17 432h96q11 -800 135 -1118l-182 -179z" />
<glyph unicode="&#xa2;" d="M181 609q0 271 143 448q154 189 414 189h16l25 252l116 -8l-26 -258q55 -12 97.5 -29t44.5 -17q65 17 77 81h79v-428h-83q-39 240 -225 288l-101 -1022h11q198 0 365 129l57 -55q-111 -136 -317 -185q-64 -16 -128 -17l-27 -272l-115 8l27 273q-210 36 -335 220 q-115 169 -115 403zM409 640.5q0 -109.5 11.5 -184.5t39.5 -140q60 -144 184 -190l100 1014q-228 -7 -304 -277q-31 -113 -31 -222.5z" />
<glyph unicode="&#xa3;" horiz-adv-x="1529" d="M127 0v83q197 34 262 141q56 91 56 326q0 42 -5 109h-235l26 113h197q-22 184 -22 285t32.5 195.5t93.5 163.5q130 144 347 144q76 0 136 -22l84 -33q25 -10 43 -10q61 0 91 65h103l-120 -529h-106q2 17 3 38l1 33q1 13 1 45t-9.5 90t-36.5 106q-61 109 -200 109 q-141 0 -201 -100q-46 -76 -46 -199q0 -93 13.5 -211t18.5 -170h416l-27 -113h-381q3 -53 3 -128t-6 -136.5t-12.5 -101.5t-12.5 -64.5t-6 -47.5t12.5 -38t39.5 -23q38 -10 139 -10t158.5 2.5t103.5 12.5t82 30t65 57q56 72 95 225h101l-63 -437h-1234z" />
<glyph unicode="&#xa4;" horiz-adv-x="1532" d="M198 257l238 232q-81 115 -81 256q0 140 82 256l-239 230l80 80l232 -238q107 81 256 81t255 -80l232 237l80 -80l-239 -230q84 -113 84 -254t-83 -259l238 -231l-80 -80l-230 238q-105 -80 -257 -80q-153 0 -257 81l-231 -239zM546 745q0 -124 34 -182.5t77 -85.5 t110.5 -27t111 27t68.5 69q44 75 44 199q0 201 -113 269q-43 27 -110 27q-121 0 -178 -98q-44 -76 -44 -198z" />
<glyph unicode="&#xa5;" horiz-adv-x="1701" d="M140 1444v87h512v-87q-104 -10 -138 -44q-33 -33 -33 -123t20 -165.5t65 -135.5q92 -126 283 -174q303 68 351 310q15 75 15 142t-7.5 97t-26.5 49q-34 34 -136 44v87h511v-87q-95 -12 -119 -44q-21 -30 -21 -144q0 -329 -340 -504h342l-27 -113h-442v-188h469l-27 -113 h-442v-72q0 -58 5.5 -90.5t26.5 -49.5t62 -25t112 -17v-83h-613v83q139 16 166 37.5t33.5 54t6.5 90.5v72h-487l26 113h461v188h-487l26 113h331q-338 171 -338 504q0 52 -2 86t-16 55q-24 38 -122 47z" />
<glyph unicode="&#xa6;" horiz-adv-x="510" d="M182 -191v888h145v-888h-145zM182 1019v892h145v-892h-145z" />
<glyph unicode="&#xa7;" horiz-adv-x="1189" d="M160 715q0 61 23.5 117t64.5 97q88 88 213 88q12 0 20 -1.5t15 -2.5q-57 49 -111 90.5t-96 84.5q-92 96 -92 215q0 136 116 220q115 84 296 84q162 0 270 -74q109 -75 109 -186q0 -114 -165 -187l-90 28q68 68 68 144q0 85 -58 138q-60 54 -161 54q-137 0 -186 -100 q-15 -31 -15 -72t20.5 -78.5t51.5 -69.5t68 -60l71 -56l194 -162q116 -97 164 -164q92 -128 92 -236q0 -134 -79 -220q-81 -89 -209 -89q-23 0 -35 3l46 -44q38 -36 80.5 -71t78.5 -73q83 -88 83 -173.5t-33.5 -141.5t-90.5 -95q-116 -78 -296 -78q-170 0 -286 74 q-125 81 -125 219q0 134 184 258l100 67l-60 51q-164 135 -220 285q-20 56 -20 117zM326 793.5q0 -50.5 9.5 -82.5t28.5 -61q32 -52 124 -132q127 -112 235 -112q65 0 107 44q44 45 44 100q0 107 -147 248q-147 131 -253 131q-60 0 -104 -43q-44 -42 -44 -92.5zM361 -49 q0 -41 13 -84.5t42 -75.5q60 -68 172.5 -68t173.5 45.5t61 130.5q0 110 -169 225l-80 55q-12 8 -22 16l-22 16q-106 -73 -154 -183q-15 -36 -15 -77z" />
<glyph unicode="&#xa8;" horiz-adv-x="1020" d="M94 1612l183 179l179 -179l-179 -180zM564 1612l183 179l179 -179l-179 -180z" />
<glyph unicode="&#xa9;" horiz-adv-x="1870" d="M74 675q0 343 236 583q150 153 362 212q105 30 219.5 30t219.5 -29.5t195.5 -83t164 -129t125.5 -166.5q109 -192 109 -417q0 -224 -109 -415q-106 -185 -290 -294q-188 -111 -414 -111q-344 0 -582 239q-151 152 -208 362q-28 105 -28 219zM183 675q0 -190 97 -361 q94 -166 254 -266q166 -103 338 -103t300.5 57t222.5 156q199 208 199 517q0 301 -193 513q-126 138 -311 192q-93 27 -197 27t-197 -27t-171.5 -76t-142 -117t-107.5 -149q-92 -169 -92 -363zM422 663q0 211 124 361q135 162 354 162q82 0 136 -19q88 -31 105 -31t27 3.5 t20 10.5q25 17 36 36h57l-87 -352h-56q2 16 2 48.5t-16.5 76t-45.5 75.5q-63 68 -154 68t-145.5 -40.5t-88.5 -104.5q-63 -119 -63 -296q0 -268 159 -372q57 -37 138.5 -37t151.5 43t142 119l50 -55q-90 -140 -261 -184q-54 -14 -140 -14t-175 41.5t-149 111.5 q-121 140 -121 349z" />
<glyph unicode="&#xaa;" horiz-adv-x="1189" d="M162 1028q0 46 30 100.5t97 102.5q158 113 437 122v133q0 133 -161 133q-70 0 -115 -29t-45 -69.5t35 -83.5l-65 -47q-86 21 -125 84q-14 23 -14 58t26 71t73 61q100 55 262.5 55t238.5 -66t76 -182v-470q0 -69 16 -83q23 -20 99 -26v-101h-199q-38 0 -76 -3l-75 -6 q-85 -9 -170.5 -9t-152.5 21.5t-110 57.5q-82 70 -82 176zM367 1028q0 -61 56 -106q60 -47 129.5 -47t100 6.5t47.5 22.5q26 26 26 109v240q-359 -26 -359 -225zM447 401l182 179l178 -179l-178 -181z" />
<glyph unicode="&#xab;" horiz-adv-x="1533" d="M150 651l612 558l75 -53l-357 -505l357 -503l-75 -53zM715 651l612 558l75 -53l-357 -505l357 -503l-75 -53z" />
<glyph unicode="&#xac;" d="M143 917l40 168h1033v-612h-168v444h-905z" />
<glyph unicode="&#xad;" d="M251 753l41 166h816l-43 -166h-814z" />
<glyph unicode="&#xae;" horiz-adv-x="1870" d="M74 675q0 343 236 583q150 153 362 212q105 30 219.5 30t219.5 -29.5t195.5 -83t164 -129t125.5 -166.5q109 -192 109 -417q0 -224 -109 -415q-106 -185 -290 -294q-188 -111 -414 -111q-344 0 -582 239q-151 152 -208 362q-28 105 -28 219zM183 675q0 -190 97 -361 q94 -166 254 -266q166 -103 338 -103t300.5 57t222.5 156q199 208 199 517q0 301 -193 513q-126 138 -311 192q-93 27 -197 27t-197 -27t-171.5 -76t-142 -117t-107.5 -149q-92 -169 -92 -363zM485 204v45l2 1q72 12 91 33q31 33 31 104v609q0 63 -21 81q-32 28 -103 38v49 h440q242 0 320 -138q28 -49 28 -120q0 -196 -209 -253l299 -466l-58 -46l-416 491h-15l-67 2q-10 2 -24 2v-266q0 -65 18 -83q27 -26 100 -34v-49h-416zM783 711q163 0 213.5 24.5t72 63.5t21.5 96t-14 91t-40 56q-51 42 -152 42t-101 -36v-337z" />
<glyph unicode="&#xaf;" horiz-adv-x="1189" d="M260 1575v131l669 29v-183z" />
<glyph unicode="&#xb0;" horiz-adv-x="1025" d="M138 1317q0 156 108.5 264.5t266.5 108.5q155 0 265 -108q109 -108 109 -265q0 -159 -109 -266q-110 -108 -266 -108q-78 0 -146.5 29t-119.5 79q-108 107 -108 266zM272 1317q0 -103 70 -179q70 -77 170 -77q51 0 95 21t77 56q70 78 70 179q0 100 -70 177 q-71 78 -171 78q-101 0 -171 -78q-70 -75 -70 -177z" />
<glyph unicode="&#xb1;" d="M99 282l40 167h1122l-41 -167h-1121zM99 927l40 167h477v368h169v-368h476l-41 -167h-435v-316h-169v316h-517z" />
<glyph unicode="&#xb2;" horiz-adv-x="1236" d="M113 1411l145 501h79q0 -38 17.5 -59t35 -21t32.5 3l32 7q105 24 176.5 24t140.5 -22t123 -63q117 -90 117 -231q0 -132 -118 -259q-104 -112 -419 -339h324q118 0 179 48q60 48 102 163h88l-107 -461h-87q-7 37 -29 57.5t-53 20.5h-739l-11 52l155 111q502 364 502 567 q0 141 -123 198q-45 20 -111 20q-233 0 -364 -317h-87z" />
<glyph unicode="&#xb3;" horiz-adv-x="1185" d="M150 1457l133 464h85q-1 -5 -1 -9v-9q0 -62 64 -62h589v-43q0 -235 -228 -430q91 -11 184 -88q110 -90 110 -230q0 -203 -156 -317q-136 -99 -342 -99q-181 0 -338 80q-47 23 -80 50l39 90q92 -73 247 -99q49 -8 105.5 -8t117.5 16t107 49q103 71 103 191q0 85 -82 155 q-93 79 -230 75q-26 -14 -52 -25l-50 -21l-39 87q164 63 272 175q99 102 124 217h-381q-82 0 -131 -58q-35 -43 -80 -151h-90z" />
<glyph unicode="&#xb4;" horiz-adv-x="850" d="M328 1414l253 466l210 -134l-365 -387z" />
<glyph unicode="&#xb5;" horiz-adv-x="1700" d="M164 -483q103 9 125 26q37 30 37 128v1238q0 133 -21.5 163t-49 38.5t-71.5 12.5v86h504v-86l-27 -4q-77 -11 -95 -27q-32 -29 -36 -112v-445q16 -249 203 -405q54 -45 112 -80q316 189 316 528v338q0 131 -19 157.5t-45 33.5t-69 13l-26 3v86h504v-85l-2 -1 q-89 -8 -109.5 -37t-26 -69.5t-5.5 -107.5v-673q0 -91 23.5 -112t57.5 -27.5t91 -10.5v-86h-374v209q-97 -189 -316 -299q-208 100 -315 275v-514q0 -98 40 -125q29 -18 155 -29v-83h-561v83z" />
<glyph unicode="&#xb6;" horiz-adv-x="1703" d="M82 1018q0 299 188 486q207 206 589 206q91 0 204 -12q182 -18 228 -18h235v-83q-113 -10 -138 -34t-30 -53.5t-6 -76.5l-52 -1998h-117l-35 2144h-126l-35 -2144h-116l-25 915q-13 -1 -25 -1h-24q-343 0 -537 201q-178 186 -178 468zM417 1002q0 -251 109 -392 q110 -143 317 -145l-29 1113q-397 -27 -397 -576z" />
<glyph unicode="&#xb7;" horiz-adv-x="512" d="M75 690l182 179l178 -179l-178 -181z" />
<glyph unicode="&#xb8;" horiz-adv-x="934" d="M268 -220l87 222h119l-49 -129q105 2 180 -48q80 -53 80 -143q0 -74 -62 -140q-77 -81 -215 -117q-38 -10 -69 -12l-57 83q91 22 143.5 62t52.5 91q0 131 -210 131z" />
<glyph unicode="&#xb9;" horiz-adv-x="984" d="M138 776v80q141 7 180 23.5t55.5 40.5t16.5 65v635q0 52 -8.5 84.5t-35.5 51.5q-46 31 -208 31v84h452v-886q0 -75 66 -102q47 -19 189 -26v-81h-707z" />
<glyph unicode="&#xba;" horiz-adv-x="1189" d="M151 1245q0 192 111 325q124 149 332 149q209 0 332 -149q112 -133 112 -325q0 -193 -112 -327q-122 -146 -332 -146q-111 0 -194 41t-138 108q-111 133 -111 324zM354 1245q0 -249 121 -337q47 -34 120.5 -34t120 34t73.5 87q48 94 48 250q0 253 -121 341 q-47 33 -120.5 33t-120.5 -34.5t-74 -88.5q-47 -94 -47 -251zM410 401l182 179l178 -179l-178 -181z" />
<glyph unicode="&#xbb;" horiz-adv-x="1533" d="M159 148l358 503l-358 505l75 53l612 -558l-612 -556zM724 148l358 503l-358 505l75 53l612 -558l-612 -556z" />
<glyph unicode="&#xbc;" horiz-adv-x="2694" d="M161 777v80q141 7 180 23.5t55.5 40.5t16.5 65v635q0 52 -8.5 84.5t-35.5 50.5q-46 32 -208 32v84h452v-886q0 -75 66 -102q47 -19 189 -26v-81h-707zM720 -352l766 2324h151l-763 -2324h-154zM1346 277l844 1172l-38 -1102h22q111 0 170 50q55 47 98 162h89l-99 -434 h-87q-6 35 -26.5 56.5t-49.5 21.5h-122l-13 -395h-116l-13 395h-633zM1563 347h437l-18 554z" />
<glyph unicode="&#xbd;" horiz-adv-x="2649" d="M160 777v80q141 7 180 23.5t55.5 40.5t16.5 65v635q0 52 -8.5 84.5t-35.5 50.5q-46 32 -208 32v84h452v-886q0 -75 66 -102q47 -19 189 -26v-81h-707zM681 -354l766 2324h151l-763 -2324h-154zM1433 633l145 501h79q0 -38 17.5 -59t35 -21t32.5 3l32 7q105 24 176.5 24 t140.5 -22t123 -63q117 -90 117 -231q0 -132 -118 -259q-104 -112 -419 -339h324q118 0 179 48q60 48 102 163h88l-107 -461h-87q-7 37 -29 57.5t-53 20.5h-739l-11 52l155 111q502 364 502 567q0 141 -123 198q-45 20 -111 20q-233 0 -364 -317h-87z" />
<glyph unicode="&#xbe;" horiz-adv-x="2865" d="M160 1458l133 464h85q-1 -5 -1 -10v-8q0 -62 64 -62h589v-43q0 -235 -228 -430q91 -11 184 -88q110 -90 110 -230q0 -203 -156 -317q-136 -99 -342 -99q-181 0 -338 79q-47 24 -80 51l39 90q92 -73 247 -99q49 -8 105.5 -8t117.5 16t107 48q103 72 103 192q0 85 -82 155 q-93 79 -230 75q-26 -14 -52 -25l-50 -21l-39 87q164 63 272 175q99 102 124 217h-381q-82 0 -131 -59q-35 -42 -80 -150h-90zM888 -354l765 2324h152l-764 -2324h-153zM1517 277l845 1172l-39 -1102h21q111 0 171 50q56 47 99 162h88l-99 -434h-87q-6 35 -26.5 56.5 t-48.5 21.5h-123l-14 -395h-115l-13 395h-633zM1733 347h438l-18 554z" />
<glyph unicode="&#xbf;" horiz-adv-x="1195" d="M113 454q0 195 115 340q117 148 306 188l23 290h96l40 -387h-63q-278 -42 -278 -412q0 -154 74 -251q76 -101 203 -101q145 0 223 64q83 69 147 260h113l-121 -501h-115q-2 37 -24.5 58.5t-49.5 21.5l-196 -11q-212 0 -348 110q-145 119 -145 331zM427 1577l178 181 l182 -181l-182 -179z" />
<glyph unicode="&#xc0;" horiz-adv-x="1534" d="M46 0v83q114 20 129.5 34.5t16.5 35t1 57.5l-1 103v54q0 529 134 787q85 166 255 302q82 65 184 133h1q223 -149 328 -275q127 -151 182 -364q56 -218 56 -581v-56l-1 -101q0 -38 3 -59t18 -33q19 -17 136 -37v-83h-549v83q131 15 157 43q21 23 23.5 69t2.5 89v242h-719 v-242q0 -65 3.5 -101.5t21.5 -56t55 -27.5t104 -16v-83h-541zM405 638h715q-2 258 -72 426q-74 177 -283 384q-141 -141 -197.5 -231.5t-82.5 -152.5t-43 -129q-28 -118 -37 -297zM482 1752l114 218l452 -278l-32 -90z" />
<glyph unicode="&#xc1;" horiz-adv-x="1534" d="M46 0v83q114 20 129.5 34.5t16.5 35t1 57.5l-1 103v54q0 529 134 787q85 166 255 302q82 65 184 133h1q223 -149 328 -275q127 -151 182 -364q56 -218 56 -581v-56l-1 -101q0 -38 3 -59t18 -33q19 -17 136 -37v-83h-549v83q131 15 157 43q21 23 23.5 69t2.5 89v242h-719 v-242q0 -65 3.5 -101.5t21.5 -56t55 -27.5t104 -16v-83h-541zM405 638h715q-2 258 -72 426q-74 177 -283 384q-141 -141 -197.5 -231.5t-82.5 -152.5t-43 -129q-28 -118 -37 -297zM482 1692l452 278l114 -218l-534 -150z" />
<glyph unicode="&#xc2;" horiz-adv-x="1534" d="M46 0v83q114 20 129.5 34.5t16.5 35t1 57.5l-1 103v54q0 529 134 787q85 166 255 302q82 65 184 133h1q223 -149 328 -275q127 -151 182 -364q56 -218 56 -581v-56l-1 -101q0 -38 3 -59t18 -33q19 -17 136 -37v-83h-549v83q131 15 157 43q21 23 23.5 69t2.5 89v242h-719 v-242q0 -65 3.5 -101.5t21.5 -56t55 -27.5t104 -16v-83h-541zM405 638h715q-2 258 -72 426q-74 177 -283 384q-141 -141 -197.5 -231.5t-82.5 -152.5t-43 -129q-28 -118 -37 -297zM430 1690l242 281h186l242 -281l-64 -64l-271 172l-271 -172z" />
<glyph unicode="&#xc3;" horiz-adv-x="1534" d="M46 0v83q114 20 129.5 34.5t16.5 35t1 57.5l-1 103v54q0 529 134 787q85 166 255 302q82 65 184 133h1q223 -149 328 -275q127 -151 182 -364q56 -218 56 -581v-56l-1 -101q0 -38 3 -59t18 -33q19 -17 136 -37v-83h-549v83q131 15 157 43q21 23 23.5 69t2.5 89v242h-719 v-242q0 -65 3.5 -101.5t21.5 -56t55 -27.5t104 -16v-83h-541zM405 638h715q-2 258 -72 426q-74 177 -283 384q-141 -141 -197.5 -231.5t-82.5 -152.5t-43 -129q-28 -118 -37 -297zM413 1716q6 115 80 187q70 68 160 68q60 0 158 -56q79 -46 118 -46q79 0 95 88h93 q-6 -113 -80 -187q-70 -68 -160 -68q-57 0 -153 55l-63 32q-31 15 -60 15q-79 0 -95 -88h-93z" />
<glyph unicode="&#xc4;" horiz-adv-x="1534" d="M46 0v83q114 20 129.5 34.5t16.5 35t1 57.5l-1 103v54q0 529 134 787q85 166 255 302q82 65 184 133h1q223 -149 328 -275q127 -151 182 -364q56 -218 56 -581v-56l-1 -101q0 -38 3 -59t18 -33q19 -17 136 -37v-83h-549v83q131 15 157 43q21 23 23.5 69t2.5 89v242h-719 v-242q0 -65 3.5 -101.5t21.5 -56t55 -27.5t104 -16v-83h-541zM349 1793l183 179l179 -179l-179 -181zM405 638h715q-2 258 -72 426q-74 177 -283 384q-141 -141 -197.5 -231.5t-82.5 -152.5t-43 -129q-28 -118 -37 -297zM819 1793l183 179l179 -179l-179 -181z" />
<glyph unicode="&#xc5;" horiz-adv-x="1534" d="M46 0v83q114 20 129.5 34.5t16.5 35t1 57.5l-1 103v54q0 529 134 787q85 166 255 302q82 65 184 133h1q223 -149 328 -275q127 -151 182 -364q56 -218 56 -581v-56l-1 -101q0 -38 3 -59t18 -33q19 -17 136 -37v-83h-549v83q131 15 157 43q21 23 23.5 69t2.5 89v242h-719 v-242q0 -65 3.5 -101.5t21.5 -56t55 -27.5t104 -16v-83h-541zM405 638h715q-2 258 -72 426q-74 177 -283 384q-141 -141 -197.5 -231.5t-82.5 -152.5t-43 -129q-28 -118 -37 -297zM492 1724q0 106 81 177q79 70 193 70q113 0 193 -70q80 -71 80 -177q0 -107 -80 -176 q-80 -68 -193 -68q-114 0 -193 68q-81 69 -81 176zM628 1734.5q0 -41.5 11 -65t29.5 -39.5t43.5 -24.5t53.5 -8.5t53.5 8.5t44 24.5q40 34 40 77t-10.5 66t-29.5 39q-40 35 -83 35t-68 -9t-43 -26q-41 -36 -41 -77.5z" />
<glyph unicode="&#xc6;" horiz-adv-x="2219" d="M98 0v83l68 14q58 12 73 31.5t20 42.5q8 37 8 180t13.5 291t42.5 269.5t74.5 219t109.5 179.5q121 154 335 280h2q62 -43 85 -60h1243l-105 -430h-96q21 113 21 165t-12.5 80.5t-41.5 44.5q-49 28 -190 28h-689q173 -134 247 -364q24 -74 43 -161h553l-27 -114h-511 q24 -216 24 -466v-201h278q141 0 196.5 14.5t89 35t62.5 55.5q55 67 105 208h95l-73 -425h-1137v83q131 15 158 43q20 23 22.5 69t2.5 89v202h-727v-202q0 -93 7 -119t18.5 -38.5t32.5 -20.5q36 -13 126 -23v-83h-546zM462 598h723q-2 308 -68 483q-75 200 -274 368 q-209 -174 -291 -365q-78 -181 -90 -486z" />
<glyph unicode="&#xc7;" horiz-adv-x="1531" d="M120 755q0 203 88 383q142 289 454 382q107 31 195 31t128 -4.5t73 -12t60 -16.5l51 -17q87 -30 137 -30t111 82h95l-132 -530h-96q5 60 5 95q0 75 -15.5 127.5t-54.5 88t-91 59.5q-108 49 -221.5 49t-192.5 -28.5t-138.5 -77.5t-101.5 -116t-68 -144q-51 -147 -51 -328 q0 -248 134 -428q95 -126 258 -178q83 -27 172 -27t153 10.5t120 32.5q112 42 206 134l50 -67q-75 -113 -212.5 -180t-329.5 -70l-38 -102q105 2 180 -48q80 -53 80 -143q0 -74 -62 -140q-77 -81 -215 -117q-38 -10 -69 -12l-57 83q91 22 143.5 62t52.5 91q0 131 -210 131 l78 201q-316 32 -500 262q-169 211 -169 512z" />
<glyph unicode="&#xc8;" horiz-adv-x="1533" d="M107 725q0 330 183 569q123 161 317 226q98 32 182.5 32t125 -5t72.5 -13t57.5 -17.5t55.5 -19.5q82 -28 132 -28t109 82h96l-133 -530h-95q5 77 5 108q0 66 -15.5 116.5t-52.5 86.5t-88 61q-102 50 -224.5 50t-210 -49t-147.5 -134q-113 -163 -135 -443h645l-27 -113 h-621q10 -233 154 -408q159 -192 406 -192q300 0 477 188l50 -67q-133 -181 -397 -233q-83 -17 -172 -17q-173 0 -312 60.5t-236 163.5q-201 213 -201 526zM529 1752l114 218l452 -278l-32 -90z" />
<glyph unicode="&#xc9;" horiz-adv-x="1533" d="M107 725q0 330 183 569q123 161 317 226q98 32 182.5 32t125 -5t72.5 -13t57.5 -17.5t55.5 -19.5q82 -28 132 -28t109 82h96l-133 -530h-95q5 77 5 108q0 66 -15.5 116.5t-52.5 86.5t-88 61q-102 50 -224.5 50t-210 -49t-147.5 -134q-113 -163 -135 -443h645l-27 -113 h-621q10 -233 154 -408q159 -192 406 -192q300 0 477 188l50 -67q-133 -181 -397 -233q-83 -17 -172 -17q-173 0 -312 60.5t-236 163.5q-201 213 -201 526zM529 1692l452 278l114 -218l-534 -150z" />
<glyph unicode="&#xca;" horiz-adv-x="1533" d="M107 725q0 330 183 569q123 161 317 226q98 32 182.5 32t125 -5t72.5 -13t57.5 -17.5t55.5 -19.5q82 -28 132 -28t109 82h96l-133 -530h-95q5 77 5 108q0 66 -15.5 116.5t-52.5 86.5t-88 61q-102 50 -224.5 50t-210 -49t-147.5 -134q-113 -163 -135 -443h645l-27 -113 h-621q10 -233 154 -408q159 -192 406 -192q300 0 477 188l50 -67q-133 -181 -397 -233q-83 -17 -172 -17q-173 0 -312 60.5t-236 163.5q-201 213 -201 526zM477 1690l242 281h186l242 -281l-64 -64l-271 172l-271 -172z" />
<glyph unicode="&#xcb;" horiz-adv-x="1533" d="M107 725q0 330 183 569q123 161 317 226q98 32 182.5 32t125 -5t72.5 -13t57.5 -17.5t55.5 -19.5q82 -28 132 -28t109 82h96l-133 -530h-95q5 77 5 108q0 66 -15.5 116.5t-52.5 86.5t-88 61q-102 50 -224.5 50t-210 -49t-147.5 -134q-113 -163 -135 -443h645l-27 -113 h-621q10 -233 154 -408q159 -192 406 -192q300 0 477 188l50 -67q-133 -181 -397 -233q-83 -17 -172 -17q-173 0 -312 60.5t-236 163.5q-201 213 -201 526zM396 1793l183 179l179 -179l-179 -181zM866 1793l183 179l179 -179l-179 -181z" />
<glyph unicode="&#xcc;" horiz-adv-x="848" d="M144 1752l114 218l452 -278l-32 -90zM154 0v82l2 1l32 5q91 12 110 33q29 33 29 144v1002q0 114 -24 136t-58 28.5t-91 11.5v87h547v-87q-56 -6 -90 -11.5t-52 -21.5q-30 -28 -30 -143v-1002q0 -112 18 -134t44.5 -28.5t71.5 -13.5l38 -6v-83h-547z" />
<glyph unicode="&#xcd;" horiz-adv-x="848" d="M144 1692l452 278l114 -218l-534 -150zM154 0v82l2 1l32 5q91 12 110 33q29 33 29 144v1002q0 114 -24 136t-58 28.5t-91 11.5v87h547v-87q-56 -6 -90 -11.5t-52 -21.5q-30 -28 -30 -143v-1002q0 -112 18 -134t44.5 -28.5t71.5 -13.5l38 -6v-83h-547z" />
<glyph unicode="&#xce;" horiz-adv-x="848" d="M93 1690l242 281h186l242 -281l-64 -64l-271 172l-271 -172zM154 0v82l2 1l32 5q91 12 110 33q29 33 29 144v1002q0 114 -24 136t-58 28.5t-91 11.5v87h547v-87q-56 -6 -90 -11.5t-52 -21.5q-30 -28 -30 -143v-1002q0 -112 18 -134t44.5 -28.5t71.5 -13.5l38 -6v-83h-547 z" />
<glyph unicode="&#xcf;" horiz-adv-x="848" d="M12 1793l183 179l179 -179l-179 -181zM154 0v82l2 1l32 5q91 12 110 33q29 33 29 144v1002q0 114 -24 136t-58 28.5t-91 11.5v87h547v-87q-56 -6 -90 -11.5t-52 -21.5q-30 -28 -30 -143v-1002q0 -112 18 -134t44.5 -28.5t71.5 -13.5l38 -6v-83h-547zM482 1793l183 179 l179 -179l-179 -181z" />
<glyph unicode="&#xd0;" horiz-adv-x="1533" d="M7 766l29 125h201v379q0 113 -24 135t-58 28t-91 11v88h291l80 -1q46 0 87 3l72 4q110 7 149 7q351 0 555 -173q221 -189 221 -554q0 -383 -205 -608q-213 -234 -588 -234q-95 0 -172 8l-126 13q-49 5 -73 5l-291 -1v83q57 8 91 15.5t52 24.5q30 30 30 142v500h-230z M440 218q0 -88 198 -120q59 -9 113 -9q421 0 513 435q31 143 31 319t-42.5 288.5t-118.5 182.5q-144 130 -420 130q-170 0 -246 -58q-28 -22 -28 -56v-439h342l-30 -125h-312v-548z" />
<glyph unicode="&#xd1;" horiz-adv-x="1703" d="M45 0v83l45 6q89 14 110 28q38 25 38 93v1348l85 30l984 -1238v937q0 96 -40 125q-30 22 -154 33v85h528v-85q-53 -6 -88 -11.5t-56 -20.5q-38 -27 -38 -123v-1314l-78 -23l-991 1247v-959q0 -86 40 -116q29 -21 95 -30.5t79 -11.5v-83h-559zM491 1716q6 115 80 187 q70 68 160 68q60 0 158 -56q79 -46 118 -46q79 0 95 88h93q-6 -113 -80 -187q-70 -68 -160 -68q-57 0 -153 55l-63 32q-31 15 -60 15q-79 0 -95 -88h-93z" />
<glyph unicode="&#xd2;" horiz-adv-x="1703" d="M119 756q0 98 20 195t60.5 185.5t101.5 164t142 131.5q172 119 408 119q349 0 551 -251q182 -225 182 -544q0 -322 -182 -538q-200 -238 -551 -238q-353 0 -551 240q-181 218 -181 536zM358 805.5q0 -131.5 9 -213.5t30.5 -157t57.5 -140t91 -113q118 -101 307 -101 q352 0 456 353q40 136 40 322q0 540 -321 659q-75 28 -175 28q-353 0 -455 -365q-40 -141 -40 -272.5zM568 1752l114 218l452 -278l-32 -90z" />
<glyph unicode="&#xd3;" horiz-adv-x="1703" d="M119 756q0 98 20 195t60.5 185.5t101.5 164t142 131.5q172 119 408 119q349 0 551 -251q182 -225 182 -544q0 -322 -182 -538q-200 -238 -551 -238q-353 0 -551 240q-181 218 -181 536zM358 805.5q0 -131.5 9 -213.5t30.5 -157t57.5 -140t91 -113q118 -101 307 -101 q352 0 456 353q40 136 40 322q0 540 -321 659q-75 28 -175 28q-353 0 -455 -365q-40 -141 -40 -272.5zM568 1692l452 278l114 -218l-534 -150z" />
<glyph unicode="&#xd4;" horiz-adv-x="1703" d="M119 756q0 98 20 195t60.5 185.5t101.5 164t142 131.5q172 119 408 119q349 0 551 -251q182 -225 182 -544q0 -322 -182 -538q-200 -238 -551 -238q-353 0 -551 240q-181 218 -181 536zM358 805.5q0 -131.5 9 -213.5t30.5 -157t57.5 -140t91 -113q118 -101 307 -101 q352 0 456 353q40 136 40 322q0 540 -321 659q-75 28 -175 28q-353 0 -455 -365q-40 -141 -40 -272.5zM516 1690l242 281h186l242 -281l-64 -64l-271 172l-271 -172z" />
<glyph unicode="&#xd5;" horiz-adv-x="1703" d="M119 756q0 98 20 195t60.5 185.5t101.5 164t142 131.5q172 119 408 119q349 0 551 -251q182 -225 182 -544q0 -322 -182 -538q-200 -238 -551 -238q-353 0 -551 240q-181 218 -181 536zM358 805.5q0 -131.5 9 -213.5t30.5 -157t57.5 -140t91 -113q118 -101 307 -101 q352 0 456 353q40 136 40 322q0 540 -321 659q-75 28 -175 28q-353 0 -455 -365q-40 -141 -40 -272.5zM499 1716q6 115 80 187q70 68 160 68q60 0 158 -56q79 -46 118 -46q79 0 95 88h93q-6 -113 -80 -187q-70 -68 -160 -68q-57 0 -153 55l-63 32q-31 15 -60 15 q-79 0 -95 -88h-93z" />
<glyph unicode="&#xd6;" horiz-adv-x="1703" d="M119 756q0 98 20 195t60.5 185.5t101.5 164t142 131.5q172 119 408 119q349 0 551 -251q182 -225 182 -544q0 -322 -182 -538q-200 -238 -551 -238q-353 0 -551 240q-181 218 -181 536zM358 805.5q0 -131.5 9 -213.5t30.5 -157t57.5 -140t91 -113q118 -101 307 -101 q352 0 456 353q40 136 40 322q0 540 -321 659q-75 28 -175 28q-353 0 -455 -365q-40 -141 -40 -272.5zM435 1793l183 179l179 -179l-179 -181zM905 1793l183 179l179 -179l-179 -181z" />
<glyph unicode="&#xd7;" d="M169 445l392 392l-392 392l119 119l392 -392l391 392l119 -119l-391 -392l392 -391l-119 -119l-392 391l-392 -392z" />
<glyph unicode="&#xd8;" horiz-adv-x="1703" d="M119 760.5q0 93.5 20 190.5t60.5 185.5t101.5 164t142 131.5q172 119 386 119t371 -83l95 153l96 -61l-96 -155q213 -168 271 -465q18 -92 18 -188.5t-20 -193t-60.5 -182.5t-101.5 -158.5t-142 -125.5q-173 -112 -398.5 -112t-390.5 95l-103 -166l-97 61l106 171 q-190 161 -242 440q-16 86 -16 179.5zM358 756q0 -305 106 -475l669 1078q-113 84 -280 84q-353 0 -455 -365q-40 -141 -40 -322zM541 188q117 -107 312 -107q352 0 456 353q40 136 40 322q0 346 -133 521z" />
<glyph unicode="&#xd9;" horiz-adv-x="1700" d="M55 1443v87h513v-87q-101 -10 -132 -44q-29 -31 -29 -163t5 -262.5t21.5 -234.5t46.5 -186.5t80 -156.5q89 -131 301 -300q206 168 293 300q89 136 118 341q21 153 21 537q0 94 -23 119q-37 40 -137 50v87h511v-87q-96 -12 -119 -45q-21 -30 -21 -186t-15.5 -311 t-48.5 -277t-84.5 -217t-122.5 -173q-122 -135 -372 -281q-257 145 -385 281q-149 158 -214 390q-66 237 -66 630q0 115 -16 139q-26 41 -125 50zM579 1752l114 218l452 -278l-32 -90z" />
<glyph unicode="&#xda;" horiz-adv-x="1700" d="M55 1443v87h513v-87q-101 -10 -132 -44q-29 -31 -29 -163t5 -262.5t21.5 -234.5t46.5 -186.5t80 -156.5q89 -131 301 -300q206 168 293 300q89 136 118 341q21 153 21 537q0 94 -23 119q-37 40 -137 50v87h511v-87q-96 -12 -119 -45q-21 -30 -21 -186t-15.5 -311 t-48.5 -277t-84.5 -217t-122.5 -173q-122 -135 -372 -281q-257 145 -385 281q-149 158 -214 390q-66 237 -66 630q0 115 -16 139q-26 41 -125 50zM579 1692l452 278l114 -218l-534 -150z" />
<glyph unicode="&#xdb;" horiz-adv-x="1700" d="M55 1443v87h513v-87q-101 -10 -132 -44q-29 -31 -29 -163t5 -262.5t21.5 -234.5t46.5 -186.5t80 -156.5q89 -131 301 -300q206 168 293 300q89 136 118 341q21 153 21 537q0 94 -23 119q-37 40 -137 50v87h511v-87q-96 -12 -119 -45q-21 -30 -21 -186t-15.5 -311 t-48.5 -277t-84.5 -217t-122.5 -173q-122 -135 -372 -281q-257 145 -385 281q-149 158 -214 390q-66 237 -66 630q0 115 -16 139q-26 41 -125 50zM527 1690l242 281h186l242 -281l-64 -64l-271 172l-271 -172z" />
<glyph unicode="&#xdc;" horiz-adv-x="1700" d="M55 1443v87h513v-87q-101 -10 -132 -44q-29 -31 -29 -163t5 -262.5t21.5 -234.5t46.5 -186.5t80 -156.5q89 -131 301 -300q206 168 293 300q89 136 118 341q21 153 21 537q0 94 -23 119q-37 40 -137 50v87h511v-87q-96 -12 -119 -45q-21 -30 -21 -186t-15.5 -311 t-48.5 -277t-84.5 -217t-122.5 -173q-122 -135 -372 -281q-257 145 -385 281q-149 158 -214 390q-66 237 -66 630q0 115 -16 139q-26 41 -125 50zM446 1793l183 179l179 -179l-179 -181zM916 1793l183 179l179 -179l-179 -181z" />
<glyph unicode="&#xdd;" horiz-adv-x="1530" d="M77 1443v87h512v-87q-104 -10 -138 -44q-33 -33 -33 -116.5t3 -151t14.5 -128.5t34 -116t60.5 -105q80 -103 236 -183q227 118 295 288q42 104 46.5 208t4.5 164.5t-7.5 90.5t-26.5 49q-34 34 -136 44v87h511v-87q-95 -12 -119 -45q-21 -29 -21 -143q0 -541 -447 -743 v-247q0 -58 5.5 -90.5t26.5 -49.5t62 -25t112 -17v-83h-613v83q139 16 166 37.5t33.5 54t6.5 90.5v247q-448 197 -448 743q0 52 -2 86t-15 55q-25 38 -123 47zM482 1692l452 278l114 -218l-534 -150z" />
<glyph unicode="&#xde;" horiz-adv-x="1361" d="M86 -1v83l35 5q43 6 70 12.5t42 24.5q26 30 26 140v1003q0 115 -24 137.5t-58 29t-91 11.5v85h548v-85q-57 -6 -91 -12t-52 -23q-30 -28 -30 -143v-69q124 32 252 32t206.5 -17.5t136 -47.5t96.5 -70.5t62 -86.5q44 -84 44 -179.5t-27.5 -177.5t-88.5 -145 q-136 -142 -389 -142q-68 0 -140 18l16 93q54 -8 116.5 -8t116 24.5t88.5 68.5q71 89 71 247q0 142 -49 217q-67 101 -239 101q-234 0 -263 -141q-9 -41 -9 -86v-634q0 -58 6 -90t26 -49t58.5 -23.5t103.5 -13.5l54 -6v-83h-623z" />
<glyph unicode="&#xdf;" horiz-adv-x="1529" d="M89 0v84q112 8 138 29t32 48t6 69v955q0 288 136 418q113 108 324 108q282 0 389 -177q38 -64 38 -124.5t-16.5 -106.5t-41.5 -84t-54 -69l-55 -59q-58 -65 -58 -103t14 -62t36.5 -45.5t50.5 -42.5q127 -91 190 -141t108 -103q94 -114 94 -258q0 -170 -127 -269 q-116 -90 -295 -90q-155 0 -253 69q-94 65 -94 159q0 63 53 118q48 48 102 62l52 -60q-33 -31 -33 -113q0 -48 58 -88q61 -41 124.5 -41t101 12t64.5 37q56 53 56 160q0 110 -95 198q-43 40 -99.5 78t-104 75t-78 67t-52.5 64q-49 75 -49 146t15 106t38 60.5t49 47t49 50.5 q53 68 53 183q0 100 -60 166q-63 69 -166 69q-259 0 -259 -369v-1233h-381z" />
<glyph unicode="&#xe0;" d="M169 303q0 149 173 275q208 154 597 162v175q0 208 -277 208q-158 0 -216 -101q-17 -31 -17 -71.5t38 -97.5l-68 -41q-118 20 -171 99q-19 27 -19 70t35 89.5t98 81.5q138 76 348 76q342 0 425 -198q26 -62 26 -137v-627q0 -116 22 -139.5t53.5 -30.5t84.5 -12v-84h-248 q-74 0 -169 -8q-195 -18 -300 -18t-185 28t-131 74q-99 89 -99 227zM389 1736l201 134l253 -466l-89 -55zM398 303q0 -159 161 -205q50 -15 125 -15t127.5 8.5t81 30.5t37.5 60.5t9 99.5v354q-541 -32 -541 -333zM939 636h2l-2 1v-1z" />
<glyph unicode="&#xe1;" d="M169 303q0 149 173 275q208 154 597 162v175q0 208 -277 208q-158 0 -216 -101q-17 -31 -17 -71.5t38 -97.5l-68 -41q-118 20 -171 99q-19 27 -19 70t35 89.5t98 81.5q138 76 348 76q342 0 425 -198q26 -62 26 -137v-627q0 -116 22 -139.5t53.5 -30.5t84.5 -12v-84h-248 q-74 0 -169 -8q-195 -18 -300 -18t-185 28t-131 74q-99 89 -99 227zM398 303q0 -159 161 -205q50 -15 125 -15t127.5 8.5t81 30.5t37.5 60.5t9 99.5v354q-541 -32 -541 -333zM534 1414l253 466l210 -134l-365 -387zM939 636h2l-2 1v-1z" />
<glyph unicode="&#xe2;" d="M169 303q0 149 173 275q208 154 597 162v175q0 208 -277 208q-158 0 -216 -101q-17 -31 -17 -71.5t38 -97.5l-68 -41q-118 20 -171 99q-19 27 -19 70t35 89.5t98 81.5q138 76 348 76q342 0 425 -198q26 -62 26 -137v-627q0 -116 22 -139.5t53.5 -30.5t84.5 -12v-84h-248 q-74 0 -169 -8q-195 -18 -300 -18t-185 28t-131 74q-99 89 -99 227zM334 1406l228 453h256l226 -453l-85 -42l-270 342l-270 -342zM398 303q0 -159 161 -205q50 -15 125 -15t127.5 8.5t81 30.5t37.5 60.5t9 99.5v354q-541 -32 -541 -333zM939 636h2l-2 1v-1z" />
<glyph unicode="&#xe3;" d="M169 303q0 149 173 275q208 154 597 162v175q0 208 -277 208q-158 0 -216 -101q-17 -31 -17 -71.5t38 -97.5l-68 -41q-118 20 -171 99q-19 27 -19 70t35 89.5t98 81.5q138 76 348 76q342 0 425 -198q26 -62 26 -137v-627q0 -116 22 -139.5t53.5 -30.5t84.5 -12v-84h-248 q-74 0 -169 -8q-195 -18 -300 -18t-185 28t-131 74q-99 89 -99 227zM292 1504q0 34 20.5 77.5t54.5 75.5q72 68 171 68q88 0 179 -76t146 -76q47 0 69 23q42 43 36 95h113q5 -33 5 -66.5t-20.5 -77t-55.5 -75.5q-73 -68 -171 -68q-66 0 -107 28t-63 47.5t-44 36.5 q-50 39 -86 39t-57.5 -8t-38.5 -23q-39 -36 -33 -86h-113q-5 32 -5 66zM398 303q0 -159 161 -205q50 -15 125 -15t127.5 8.5t81 30.5t37.5 60.5t9 99.5v354q-541 -32 -541 -333zM939 636h2l-2 1v-1z" />
<glyph unicode="&#xe4;" d="M169 303q0 149 173 275q208 154 597 162v175q0 208 -277 208q-158 0 -216 -101q-17 -31 -17 -71.5t38 -97.5l-68 -41q-118 20 -171 99q-19 27 -19 70t35 89.5t98 81.5q138 76 348 76q342 0 425 -198q26 -62 26 -137v-627q0 -116 22 -139.5t53.5 -30.5t84.5 -12v-84h-248 q-74 0 -169 -8q-195 -18 -300 -18t-185 28t-131 74q-99 89 -99 227zM273 1612l183 179l179 -179l-179 -180zM398 303q0 -159 161 -205q50 -15 125 -15t127.5 8.5t81 30.5t37.5 60.5t9 99.5v354q-541 -32 -541 -333zM743 1612l183 179l179 -179l-179 -180zM939 636h2l-2 1v-1 z" />
<glyph unicode="&#xe5;" d="M169 303q0 149 173 275q208 154 597 162v175q0 208 -277 208q-158 0 -216 -101q-17 -31 -17 -71.5t38 -97.5l-68 -41q-118 20 -171 99q-19 27 -19 70t35 89.5t98 81.5q138 76 348 76q342 0 425 -198q26 -62 26 -137v-627q0 -116 22 -139.5t53.5 -30.5t84.5 -12v-84h-248 q-74 0 -169 -8q-195 -18 -300 -18t-185 28t-131 74q-99 89 -99 227zM398 303q0 -159 161 -205q50 -15 125 -15t127.5 8.5t81 30.5t37.5 60.5t9 99.5v354q-541 -32 -541 -333zM401 1618q0 121 88 190q81 64 200 64t201 -64q88 -68 88 -190t-88 -194q-81 -64 -201 -64 q-121 0 -200 64q-88 72 -88 194zM525 1612.5q0 -38.5 13.5 -67t35.5 -47.5q45 -39 115 -39q69 0 103 29q62 53 62 125q0 71 -51 115q-45 38 -114 38q-110 0 -151 -86q-13 -29 -13 -67.5zM939 636h2l-2 1v-1z" />
<glyph unicode="&#xe6;" horiz-adv-x="2046" d="M141 313q0 149 177 271q215 148 619 156v175q0 100 -69.5 158t-224.5 58q-158 0 -215 -107q-18 -33 -18 -73.5t38 -97.5l-68 -41q-116 20 -170 99q-19 27 -19 70t35 89.5t98 81.5q138 76 348 76q314 0 420 -176q73 83 185.5 129.5t223 46.5t181.5 -19.5t122 -55.5 q108 -76 108 -201q0 -171 -164 -290q-194 -140 -584 -143q0 -137 88 -267q108 -162 296 -162t314 108l57 -57q-130 -161 -416.5 -161t-432.5 205q-67 -102 -222 -158q-128 -47 -263 -47t-215 28.5t-131 75.5q-98 90 -98 229zM369 331q0 -72 19.5 -115t55.5 -73 q76 -63 199 -63t207 78q87 80 87 202v276q-398 -22 -520 -174q-48 -59 -48 -131zM1164 626q354 7 484 185q46 63 46 153q0 106 -108 150q-37 16 -106 16t-131.5 -42t-103.5 -112q-81 -138 -81 -350z" />
<glyph unicode="&#xe7;" horiz-adv-x="1195" d="M85 608q0 271 143 448q154 189 414 189q128 0 247 -51q18 -8 26 -9q65 17 77 81h79v-428h-83q-54 301 -331 301q-178 0 -267 -165q-77 -140 -77 -368q0 -391 237 -482q53 -20 123 -20q198 0 365 129l57 -55q-108 -133 -307 -182q-62 -16 -125 -19l-39 -104q105 2 180 -48 q80 -53 80 -143q0 -74 -62 -140q-77 -81 -215 -117q-38 -10 -69 -12l-57 83q91 22 143.5 62t52.5 91q0 131 -210 131l79 203q-217 35 -344 217q-117 170 -117 408z" />
<glyph unicode="&#xe8;" horiz-adv-x="1195" d="M101 587q0 279 159 461q158 180 405 180q189 0 295 -80q101 -75 101 -206q0 -169 -164 -285q-191 -135 -578 -138q35 -409 370 -409q210 0 322 96l57 -57q-137 -169 -411 -169q-264 0 -413 171q-143 165 -143 436zM316 626q356 7 482 169q46 60 46 149q0 116 -100 160 q-39 17 -97 17t-103 -20.5t-81 -56t-63 -83t-45 -102.5q-37 -113 -39 -233zM358 1736l201 134l253 -466l-89 -55z" />
<glyph unicode="&#xe9;" horiz-adv-x="1195" d="M101 587q0 279 159 461q158 180 405 180q189 0 295 -80q101 -75 101 -206q0 -169 -164 -285q-191 -135 -578 -138q35 -409 370 -409q210 0 322 96l57 -57q-137 -169 -411 -169q-264 0 -413 171q-143 165 -143 436zM316 626q356 7 482 169q46 60 46 149q0 116 -100 160 q-39 17 -97 17t-103 -20.5t-81 -56t-63 -83t-45 -102.5q-37 -113 -39 -233zM503 1414l253 466l210 -134l-365 -387z" />
<glyph unicode="&#xea;" horiz-adv-x="1195" d="M101 587q0 279 159 461q158 180 405 180q189 0 295 -80q101 -75 101 -206q0 -169 -164 -285q-191 -135 -578 -138q35 -409 370 -409q210 0 322 96l57 -57q-137 -169 -411 -169q-264 0 -413 171q-143 165 -143 436zM303 1406l228 453h256l226 -453l-85 -42l-270 342 l-270 -342zM316 626q356 7 482 169q46 60 46 149q0 116 -100 160q-39 17 -97 17t-103 -20.5t-81 -56t-63 -83t-45 -102.5q-37 -113 -39 -233z" />
<glyph unicode="&#xeb;" horiz-adv-x="1195" d="M101 587q0 279 159 461q158 180 405 180q189 0 295 -80q101 -75 101 -206q0 -169 -164 -285q-191 -135 -578 -138q35 -409 370 -409q210 0 322 96l57 -57q-137 -169 -411 -169q-264 0 -413 171q-143 165 -143 436zM242 1612l183 179l179 -179l-179 -180zM316 626 q356 7 482 169q46 60 46 149q0 116 -100 160q-39 17 -97 17t-103 -20.5t-81 -56t-63 -83t-45 -102.5q-37 -113 -39 -233zM712 1612l183 179l179 -179l-179 -180z" />
<glyph unicode="&#xec;" horiz-adv-x="680" d="M59 1736l201 134l253 -466l-89 -55zM85 0v83l35 5q43 6 70 12.5t42 23.5q26 31 26 142v678q0 114 -24 137.5t-58 29.5t-91 11v86h547v-86q-57 -6 -91 -12t-52 -23q-29 -27 -29 -143v-678q0 -114 18 -135t44.5 -28t70.5 -14l39 -6v-83h-547z" />
<glyph unicode="&#xed;" horiz-adv-x="680" d="M85 0v83l35 5q43 6 70 12.5t42 23.5q26 31 26 142v678q0 114 -24 137.5t-58 29.5t-91 11v86h547v-86q-57 -6 -91 -12t-52 -23q-29 -27 -29 -143v-678q0 -114 18 -135t44.5 -28t70.5 -14l39 -6v-83h-547zM204 1414l253 466l210 -134l-365 -387z" />
<glyph unicode="&#xee;" horiz-adv-x="680" d="M4 1406l228 453h256l226 -453l-85 -42l-270 342l-270 -342zM85 0v83l35 5q43 6 70 12.5t42 23.5q26 31 26 142v678q0 114 -24 137.5t-58 29.5t-91 11v86h547v-86q-57 -6 -91 -12t-52 -23q-29 -27 -29 -143v-678q0 -114 18 -135t44.5 -28t70.5 -14l39 -6v-83h-547z" />
<glyph unicode="&#xef;" horiz-adv-x="680" d="M-57 1612l183 179l179 -179l-179 -180zM85 0v83l35 5q43 6 70 12.5t42 23.5q26 31 26 142v678q0 114 -24 137.5t-58 29.5t-91 11v86h547v-86q-57 -6 -91 -12t-52 -23q-29 -27 -29 -143v-678q0 -114 18 -135t44.5 -28t70.5 -14l39 -6v-83h-547zM413 1612l183 179l179 -179 l-179 -180z" />
<glyph unicode="&#xf0;" horiz-adv-x="1366" d="M106 584q0 247 136 418q150 191 405 191q182 0 289 -95q-82 299 -266 426l-311 -150l-57 91l272 130q-121 75 -278 109l21 102q227 -34 397 -129l270 131l57 -90l-224 -109q301 -221 376 -641q23 -130 23 -281.5t-40 -287t-114 -229.5q-152 -197 -409 -197 q-246 0 -403 193q-144 177 -144 418zM335 581q0 -381 211 -475q48 -21 131 -21t148 46t101 129q62 143 62 451q0 265 -188 349q-59 26 -145.5 26t-150.5 -43t-102 -113q-67 -127 -67 -349z" />
<glyph unicode="&#xf1;" horiz-adv-x="1538" d="M152 0v82q6 3 15.5 3.5t35 4t53 10.5t42.5 24q25 27 25 136v713q0 91 -23 111.5t-57 27t-91 10.5v86h374v-208q91 181 326 300q173 -92 266 -202q147 -177 178 -526q10 -120 10 -232t4 -152t17 -60.5t38 -27t50 -10.5t35.5 -4.5t21.5 -2.5v-83h-547v83q57 7 91 13.5 t52 24.5q29 29 29 161v116q0 229 -11 317.5t-27.5 146t-44.5 108.5q-55 96 -172 189q-316 -195 -316 -528v-339q0 -132 19.5 -158t48.5 -33.5t79 -14.5l26 -3v-83h-547zM453 1504q0 34 20.5 77.5t54.5 75.5q72 68 171 68q88 0 179 -76t146 -76q47 0 69 23q42 43 36 95h113 q5 -33 5 -66.5t-20.5 -77t-55.5 -75.5q-73 -68 -171 -68q-66 0 -107 28t-63 47.5t-44 36.5q-50 39 -86 39t-57.5 -8t-38.5 -23q-39 -36 -33 -86h-113q-5 32 -5 66z" />
<glyph unicode="&#xf2;" horiz-adv-x="1364" d="M121 610q0 78 15.5 155t47 146t78.5 127t109 100q133 90 309 90q266 0 420 -190q141 -174 141 -429q0 -257 -141 -437q-154 -196 -420 -196q-265 0 -420 199q-139 180 -139 435zM349 609q0 -408 214 -500q51 -22 118.5 -22t118.5 21.5t88 59.5t61.5 88.5t39.5 108.5 q27 104 27 205.5t-6 164t-21 119t-39.5 105.5t-61.5 85q-80 76 -206 76q-237 0 -306 -272q-27 -103 -27 -239zM381 1736l201 134l253 -466l-89 -55z" />
<glyph unicode="&#xf3;" horiz-adv-x="1364" d="M121 610q0 78 15.5 155t47 146t78.5 127t109 100q133 90 309 90q266 0 420 -190q141 -174 141 -429q0 -257 -141 -437q-154 -196 -420 -196q-265 0 -420 199q-139 180 -139 435zM349 609q0 -408 214 -500q51 -22 118.5 -22t118.5 21.5t88 59.5t61.5 88.5t39.5 108.5 q27 104 27 205.5t-6 164t-21 119t-39.5 105.5t-61.5 85q-80 76 -206 76q-237 0 -306 -272q-27 -103 -27 -239zM526 1414l253 466l210 -134l-365 -387z" />
<glyph unicode="&#xf4;" horiz-adv-x="1364" d="M121 610q0 78 15.5 155t47 146t78.5 127t109 100q133 90 309 90q266 0 420 -190q141 -174 141 -429q0 -257 -141 -437q-154 -196 -420 -196q-265 0 -420 199q-139 180 -139 435zM326 1406l228 453h256l226 -453l-85 -42l-270 342l-270 -342zM349 609q0 -408 214 -500 q51 -22 118.5 -22t118.5 21.5t88 59.5t61.5 88.5t39.5 108.5q27 104 27 205.5t-6 164t-21 119t-39.5 105.5t-61.5 85q-80 76 -206 76q-237 0 -306 -272q-27 -103 -27 -239z" />
<glyph unicode="&#xf5;" horiz-adv-x="1364" d="M121 610q0 78 15.5 155t47 146t78.5 127t109 100q133 90 309 90q266 0 420 -190q141 -174 141 -429q0 -257 -141 -437q-154 -196 -420 -196q-265 0 -420 199q-139 180 -139 435zM284 1504q0 34 20.5 77.5t54.5 75.5q72 68 171 68q88 0 179 -76t146 -76q47 0 69 23 q42 43 36 95h113q5 -33 5 -66.5t-20.5 -77t-55.5 -75.5q-73 -68 -171 -68q-66 0 -107 28t-63 47.5t-44 36.5q-50 39 -86 39t-57.5 -8t-38.5 -23q-39 -36 -33 -86h-113q-5 32 -5 66zM349 609q0 -408 214 -500q51 -22 118.5 -22t118.5 21.5t88 59.5t61.5 88.5t39.5 108.5 q27 104 27 205.5t-6 164t-21 119t-39.5 105.5t-61.5 85q-80 76 -206 76q-237 0 -306 -272q-27 -103 -27 -239z" />
<glyph unicode="&#xf6;" horiz-adv-x="1364" d="M121 610q0 78 15.5 155t47 146t78.5 127t109 100q133 90 309 90q266 0 420 -190q141 -174 141 -429q0 -257 -141 -437q-154 -196 -420 -196q-265 0 -420 199q-139 180 -139 435zM265 1612l183 179l179 -179l-179 -180zM349 609q0 -408 214 -500q51 -22 118.5 -22 t118.5 21.5t88 59.5t61.5 88.5t39.5 108.5q27 104 27 205.5t-6 164t-21 119t-39.5 105.5t-61.5 85q-80 76 -206 76q-237 0 -306 -272q-27 -103 -27 -239zM735 1612l183 179l179 -179l-179 -180z" />
<glyph unicode="&#xf7;" d="M99 752l40 167h1122l-41 -167h-1121zM508 343l174 172l172 -172l-172 -174zM508 1315l174 172l172 -172l-172 -175z" />
<glyph unicode="&#xf8;" horiz-adv-x="1364" d="M121 615q0 73 15.5 150t47 146t78.5 127t109 100q133 90 305 90t298 -80l145 221l96 -61l-152 -231q178 -178 178 -468q0 -257 -141 -437q-154 -196 -420 -196q-163 0 -288 79l-124 -190l-97 61l132 201q-133 133 -171 349q-11 66 -11 139zM349 635q0 -228 54 -355 l495 753q-81 87 -216 87q-237 0 -306 -272q-27 -103 -27 -213zM470 174q81 -87 212 -87q235 0 307 278q27 104 27 217q0 224 -51 345z" />
<glyph unicode="&#xf9;" horiz-adv-x="1361" d="M58 1122v86h492v-86q-99 -10 -128 -44q-23 -29 -23 -140t3.5 -207t13.5 -172t29 -136.5t51 -114.5q58 -100 184 -218q129 121 172.5 196.5t62.5 136t29 136.5q17 129 17 284.5t-4 185.5t-19 49q-29 34 -127 44v86h490v-86q-98 -14 -115 -39.5t-20.5 -59.5t-3.5 -138.5 t-11.5 -222.5t-36 -210t-62.5 -162.5t-92 -129.5q-90 -98 -280 -212q-190 114 -280 212q-158 173 -190 502q-12 118 -12 220.5t-2 137t-16 55.5q-24 38 -122 47zM379 1736l201 134l253 -466l-89 -55z" />
<glyph unicode="&#xfa;" horiz-adv-x="1361" d="M58 1122v86h492v-86q-99 -10 -128 -44q-23 -29 -23 -140t3.5 -207t13.5 -172t29 -136.5t51 -114.5q58 -100 184 -218q129 121 172.5 196.5t62.5 136t29 136.5q17 129 17 284.5t-4 185.5t-19 49q-29 34 -127 44v86h490v-86q-98 -14 -115 -39.5t-20.5 -59.5t-3.5 -138.5 t-11.5 -222.5t-36 -210t-62.5 -162.5t-92 -129.5q-90 -98 -280 -212q-190 114 -280 212q-158 173 -190 502q-12 118 -12 220.5t-2 137t-16 55.5q-24 38 -122 47zM524 1414l253 466l210 -134l-365 -387z" />
<glyph unicode="&#xfb;" horiz-adv-x="1361" d="M58 1122v86h492v-86q-99 -10 -128 -44q-23 -29 -23 -140t3.5 -207t13.5 -172t29 -136.5t51 -114.5q58 -100 184 -218q129 121 172.5 196.5t62.5 136t29 136.5q17 129 17 284.5t-4 185.5t-19 49q-29 34 -127 44v86h490v-86q-98 -14 -115 -39.5t-20.5 -59.5t-3.5 -138.5 t-11.5 -222.5t-36 -210t-62.5 -162.5t-92 -129.5q-90 -98 -280 -212q-190 114 -280 212q-158 173 -190 502q-12 118 -12 220.5t-2 137t-16 55.5q-24 38 -122 47zM324 1406l228 453h256l226 -453l-85 -42l-270 342l-270 -342z" />
<glyph unicode="&#xfc;" horiz-adv-x="1361" d="M58 1122v86h492v-86q-99 -10 -128 -44q-23 -29 -23 -140t3.5 -207t13.5 -172t29 -136.5t51 -114.5q58 -100 184 -218q129 121 172.5 196.5t62.5 136t29 136.5q17 129 17 284.5t-4 185.5t-19 49q-29 34 -127 44v86h490v-86q-98 -14 -115 -39.5t-20.5 -59.5t-3.5 -138.5 t-11.5 -222.5t-36 -210t-62.5 -162.5t-92 -129.5q-90 -98 -280 -212q-190 114 -280 212q-158 173 -190 502q-12 118 -12 220.5t-2 137t-16 55.5q-24 38 -122 47zM263 1612l183 179l179 -179l-179 -180zM733 1612l183 179l179 -179l-179 -180z" />
<glyph unicode="&#xfd;" horiz-adv-x="1361" d="M50 1122v86h504v-86l-25 -3q-45 -6 -71.5 -12.5t-40.5 -24.5q-22 -30 -22 -156v-116q0 -153 6.5 -265t32.5 -199q49 -166 215 -297q307 189 307 529v338q0 135 -18.5 159t-45 31t-71.5 13l-24 3v86h503v-85l-2 -1q-88 -8 -108 -37q-31 -45 -31 -177v-447 q0 -447 -127 -690q-154 -296 -546 -358l-21 105q240 59 354 218q111 154 135 447q-113 -176 -314 -275q-173 92 -266 202q-147 177 -178 526q-10 120 -10 229t-5 150t-19.5 63.5t-41 31t-70.5 12.5zM525 1414l253 466l210 -134l-365 -387z" />
<glyph unicode="&#xfe;" horiz-adv-x="1368" d="M101 1627v83h549v-83q-112 -11 -134 -27q-38 -27 -38 -125v-370q92 98 246 130q49 10 113.5 10t133.5 -24.5t125 -67.5t99 -101.5t71 -127.5q59 -143 59 -303q0 -260 -143 -447q-157 -204 -430 -204q-102 0 -275 23v-323q0 -99 41 -124q29 -18 153 -29v-83h-560v82l2 1 q101 9 123 26q37 30 37 127v330l1 1475q0 96 -36 123q-24 18 -137 29zM478 293q0 -95 54 -145q70 -62 236 -62t254 162q78 140 78 373q0 338 -150 461q-56 46 -130 46t-134 -22t-106 -60q-102 -83 -102 -197v-556z" />
<glyph unicode="&#xff;" horiz-adv-x="1361" d="M50 1122v86h504v-86l-25 -3q-45 -6 -71.5 -12.5t-40.5 -24.5q-22 -30 -22 -156v-116q0 -153 6.5 -265t32.5 -199q49 -166 215 -297q307 189 307 529v338q0 135 -18.5 159t-45 31t-71.5 13l-24 3v86h503v-85l-2 -1q-88 -8 -108 -37q-31 -45 -31 -177v-447 q0 -447 -127 -690q-154 -296 -546 -358l-21 105q240 59 354 218q111 154 135 447q-113 -176 -314 -275q-173 92 -266 202q-147 177 -178 526q-10 120 -10 229t-5 150t-19.5 63.5t-41 31t-70.5 12.5zM264 1612l183 179l179 -179l-179 -180zM734 1612l183 179l179 -179 l-179 -180z" />
<glyph unicode="&#x152;" horiz-adv-x="2379" d="M112 758q0 192 44 333t135 246q196 226 554 226q73 0 179 -11q197 -22 235 -22h946l-105 -431h-96q21 113 21 165.5t-12.5 81t-40.5 44.5q-50 28 -191 28h-412v-601h566l-27 -113h-539v-592h308q155 0 215.5 14.5t97.5 35t68 55.5q60 66 116 208h94l-95 -425h-918 q-59 0 -125 -6l-126 -10q-122 -10 -203.5 -10t-185 30.5t-184.5 85t-141.5 130t-99.5 166.5q-78 180 -78 372zM350 788q0 -89 8.5 -176t29 -165.5t56.5 -144.5t92 -114q117 -103 311.5 -103t318.5 81v1213q-128 76 -319 76q-439 0 -489 -494q-8 -84 -8 -173z" />
<glyph unicode="&#x153;" horiz-adv-x="2216" d="M133 609q0 255 141 429q154 190 418 190q250 0 398 -172q46 -52 78 -115q110 207 322 267q71 20 159 20t162 -21t124 -59q101 -75 101 -206q0 -169 -164 -285q-191 -135 -578 -138q24 -281 212 -375q66 -34 158 -34q210 0 322 96l57 -57q-137 -169 -411 -169 q-242 0 -392 161q-47 51 -80 115q-103 -200 -312 -260q-71 -20 -160 -20t-167 25t-140 69.5t-108.5 104.5t-77.5 131q-62 140 -62 303zM361 609q0 -408 214 -500q51 -22 118.5 -22t118.5 21.5t88 59.5t61.5 88.5t39.5 108.5q27 104 27 205.5t-6 164t-21 119t-39.5 105.5 t-61.5 85q-80 76 -206 76q-237 0 -306 -272q-27 -103 -27 -239zM1291 626q217 3 366 72q174 80 174 246q0 114 -110 160q-41 17 -98.5 17t-103 -20.5t-81.5 -56t-63 -83t-45 -102.5q-37 -113 -39 -233z" />
<glyph unicode="&#x178;" horiz-adv-x="1530" d="M77 1443v87h512v-87q-104 -10 -138 -44q-33 -33 -33 -116.5t3 -151t14.5 -128.5t34 -116t60.5 -105q80 -103 236 -183q227 118 295 288q42 104 46.5 208t4.5 164.5t-7.5 90.5t-26.5 49q-34 34 -136 44v87h511v-87q-95 -12 -119 -45q-21 -29 -21 -143q0 -541 -447 -743 v-247q0 -58 5.5 -90.5t26.5 -49.5t62 -25t112 -17v-83h-613v83q139 16 166 37.5t33.5 54t6.5 90.5v247q-448 197 -448 743q0 52 -2 86t-15 55q-25 38 -123 47zM349 1793l183 179l179 -179l-179 -181zM819 1793l183 179l179 -179l-179 -181z" />
<glyph unicode="&#x2c6;" horiz-adv-x="1189" d="M248 1406l228 453h256l226 -453l-85 -42l-270 342l-270 -342z" />
<glyph unicode="&#x2dc;" horiz-adv-x="1195" d="M200 1504q0 34 20.5 77.5t54.5 75.5q72 68 171 68q88 0 179 -76t146 -76q47 0 69 23q42 43 36 95h113q5 -33 5 -66.5t-20.5 -77t-55.5 -75.5q-73 -68 -171 -68q-66 0 -107 28t-63 47.5t-44 36.5q-50 39 -86 39t-57.5 -8t-38.5 -23q-39 -36 -33 -86h-113q-5 32 -5 66z" />
<glyph unicode="&#x2000;" horiz-adv-x="986" />
<glyph unicode="&#x2001;" horiz-adv-x="1972" />
<glyph unicode="&#x2002;" horiz-adv-x="986" />
<glyph unicode="&#x2003;" horiz-adv-x="1972" />
<glyph unicode="&#x2004;" horiz-adv-x="657" />
<glyph unicode="&#x2005;" horiz-adv-x="493" />
<glyph unicode="&#x2006;" horiz-adv-x="328" />
<glyph unicode="&#x2007;" horiz-adv-x="328" />
<glyph unicode="&#x2008;" horiz-adv-x="246" />
<glyph unicode="&#x2009;" horiz-adv-x="394" />
<glyph unicode="&#x200a;" horiz-adv-x="109" />
<glyph unicode="&#x2010;" d="M251 753l41 166h816l-43 -166h-814z" />
<glyph unicode="&#x2011;" d="M251 753l41 166h816l-43 -166h-814z" />
<glyph unicode="&#x2012;" d="M251 753l41 166h816l-43 -166h-814z" />
<glyph unicode="&#x2013;" horiz-adv-x="1530" d="M184 753l40 166h1121l-41 -166h-1120z" />
<glyph unicode="&#x2014;" horiz-adv-x="2039" d="M188 753l39 166h1623l-41 -166h-1621z" />
<glyph unicode="&#x2018;" horiz-adv-x="512" d="M95 1079q15 240 145 463q48 84 118 163l77 -53q-109 -157 -109 -301t128 -272l-180 -178z" />
<glyph unicode="&#x2019;" horiz-adv-x="512" d="M80 1531l181 179l178 -179q9 -113 -57 -284q-74 -194 -205 -342l-77 53q76 108 102 254q7 42 7 78q0 70 -23 111q-33 57 -106 130z" />
<glyph unicode="&#x201a;" horiz-adv-x="512" d="M78 123l181 179l178 -179q9 -113 -57 -284q-74 -194 -205 -342l-77 53q76 108 102 254q7 42 7 78q0 70 -23 111q-33 57 -106 130z" />
<glyph unicode="&#x201c;" horiz-adv-x="1025" d="M95 1079q15 240 145 463q48 84 118 163l77 -53q-109 -157 -109 -301t128 -272l-180 -178zM582 1079q15 240 145 463q48 84 118 163l77 -53q-109 -157 -109 -301t128 -272l-180 -178z" />
<glyph unicode="&#x201d;" horiz-adv-x="1025" d="M80 1531l181 179l178 -179q9 -113 -57 -284q-74 -194 -205 -342l-77 53q76 108 102 254q7 42 7 78q0 70 -23 111q-33 57 -106 130zM565 1531l181 179l178 -179q9 -113 -57 -284q-74 -194 -205 -342l-77 53q76 108 102 254q7 42 7 78q0 70 -23 111q-33 57 -106 130z" />
<glyph unicode="&#x201e;" horiz-adv-x="1019" d="M80 123l181 179l178 -179q9 -113 -57 -284q-74 -194 -205 -342l-77 53q76 108 102 254q7 42 7 78q0 70 -23 111q-33 57 -106 130zM565 123l181 179l178 -179q9 -113 -57 -284q-74 -194 -205 -342l-77 53q76 108 102 254q7 42 7 78q0 70 -23 111q-33 57 -106 130z" />
<glyph unicode="&#x2022;" horiz-adv-x="1532" d="M324 1115l65 115l100 -56q171 -90 269 -90q104 0 285 94l98 52l67 -114l-98 -59q-153 -97 -214 -187q-41 -64 -50 -150.5t-10.5 -143t-3.5 -111.5l-132 -1q0 274 -57 392q-44 89 -225 200z" />
<glyph unicode="&#x2026;" horiz-adv-x="1536" d="M75 123l182 179l178 -179l-178 -181zM587 123l182 179l178 -179l-178 -181zM1099 123l182 179l178 -179l-178 -181z" />
<glyph unicode="&#x202f;" horiz-adv-x="394" />
<glyph unicode="&#x2039;" horiz-adv-x="1025" d="M149 651l612 558l75 -53l-357 -505l357 -503l-75 -53z" />
<glyph unicode="&#x203a;" horiz-adv-x="1025" d="M189 148l357 503l-357 505l75 53l612 -558l-612 -556z" />
<glyph unicode="&#x205f;" horiz-adv-x="493" />
<glyph unicode="&#x20ac;" horiz-adv-x="1872" d="M140 584v113h199q-2 28 -2 61.5t3 69.5h-200v113h216q53 262 236 429q199 182 491 182q123 0 222 -33l51 -17q70 -30 107 -30q50 0 111 82h95l-132 -530h-96q5 60 5 95q0 75 -15 127.5t-50.5 88t-84.5 59.5q-99 49 -215 49t-201.5 -41t-145.5 -110q-112 -130 -147 -351 h712l-27 -113h-698q-2 -40 -2 -66v-40q0 -12 1 -25h662l-27 -113h-620q62 -319 320 -429q92 -39 187 -39t155 10.5t114 31.5q102 42 191 135l50 -67q-114 -180 -353 -232q-80 -18 -205 -18t-249.5 48t-215.5 130q-181 164 -230 430h-212z" />
<glyph unicode="&#x2122;" horiz-adv-x="2215" d="M178 1418l67 258h761l-62 -258h-88q9 39 9 64t-4.5 43t-15.5 32q-25 32 -75 32h-105v-617q0 -37 16 -45q23 -10 109 -20v-87h-400v87q78 6 97 15t23 20.5t4 29.5v617h-100q-70 0 -115 -101l-30 -70h-91zM980 820v87q61 4 74 19.5t16 33.5l182 756h58l245 -656l239 656h42 l169 -741q6 -40 20 -50q19 -14 70 -18v-87h-319v86q74 8 78 36q2 10 0 24l-83 452l-219 -622h-48l-222 622l-96 -450q-5 -43 63 -54q20 -4 44 -7v-87h-313z" />
<glyph unicode="&#x25fc;" horiz-adv-x="1210" d="M0 0v1210h1210v-1210h-1210z" />
<glyph unicode="&#xfb01;" horiz-adv-x="1540" d="M89 0v85q113 8 138 29t31 48t6 69v855h-167v93q103 14 129.5 32.5t33 37t6.5 45.5v56q0 259 129 368q115 97 364 97h127l-1 -107l-122 -16q-162 -27 -226 -86q-72 -66 -72 -209v-189h1012v-86q-57 -6 -91 -12t-52 -23q-29 -27 -29 -143v-678q0 -114 18 -135t44.5 -28 t70.5 -14l39 -6v-83h-547v83l35 5q43 6 70 12.5t42 23.5q26 31 26 142v820h-636v-834q0 -52 8 -82.5t35 -47.5q38 -25 205 -37v-85h-626zM1013 1607l182 179l178 -179l-178 -181z" />
<glyph unicode="&#xfb02;" horiz-adv-x="1535" d="M85 0v85q113 8 138 29t31 48t6 69v855h-167v93q103 14 129.5 32.5t33 37t6.5 45.5v36q0 257 129 358q110 87 364 87h547v-1510q0 -104 34 -137q25 -25 120 -38l48 -7v-83h-577v83l35 5q43 6 70 12.5t42 23.5q26 31 26 141v1399h-308q-331 0 -331 -287v-169h339v-122h-337 v-834q0 -52 8 -82.5t35 -47.5q38 -25 205 -37v-85h-626z" />
</font>
</defs>
</svg>
